<svg xmlns="http://www.w3.org/2000/svg" width="1200" height="1200" viewBox="0 0 1200 1200" fill="none">
  <rect width="1200" height="1200" fill="#ffe8f2"/>
  <rect x="42" y="42" width="1116" height="1116" rx="16" stroke="#161616" stroke-width="4"/>
  <path d="M74 110 C 210 72, 420 84, 520 112" stroke="#161616" stroke-width="4" stroke-linecap="round"/>
  <path d="M900 108 C 960 90, 1080 84, 1120 114" stroke="#161616" stroke-width="4" stroke-linecap="round"/>
  <text x="88" y="110" font-family="Comic Sans MS, Bradley Hand, Segoe Print, sans-serif" font-size="34" fill="#161616">Snoodle Doodles HQ</text>
  <text x="86" y="180" font-family="Comic Sans MS, Bradley Hand, Segoe Print, sans-serif" font-size="88" fill="#161616">Desk Chaos</text>
  <text x="86" y="255" font-family="Comic Sans MS, Bradley Hand, Segoe Print, sans-serif" font-size="66" fill="#161616">sticker pack</text>
  <text x="84" y="315" font-family="Comic Sans MS, Bradley Hand, Segoe Print, sans-serif" font-size="34" fill="#404040">Close-up</text>

<circle cx="669" cy="287" r="30" stroke="#161616" stroke-width="4" opacity="0.9"/>
<circle cx="914" cy="353" r="83" stroke="#161616" stroke-width="4" opacity="0.9"/>
<circle cx="555" cy="427" r="83" stroke="#161616" stroke-width="4" opacity="0.9"/>
<circle cx="766" cy="474" r="36" stroke="#161616" stroke-width="4" opacity="0.9"/>
<circle cx="600" cy="301" r="36" stroke="#161616" stroke-width="4" opacity="0.9"/>
<rect x="120" y="360" width="960" height="690" rx="20" fill="#fffdf8" stroke="#161616" stroke-width="4"/>
<rect x="147" y="506" width="151" height="101" rx="30" ry="45" fill="white" stroke="#161616" stroke-width="4" transform="rotate(7 222.5 556.5)"/>
<circle cx="204.5" cy="546.48" r="5" fill="#161616"/>
<circle cx="240.5" cy="546.48" r="5" fill="#161616"/>
<path d="M 196.5 572.48 Q 222.5 592.48 248.5 572.48" stroke="#161616" stroke-width="4" stroke-linecap="round" fill="none"/>
<path d="M 184.5 514.48 Q 222.5 476.48 258.5 514.48" stroke="#161616" stroke-width="4" stroke-linecap="round" fill="none"/>
<rect x="265" y="270" width="130" height="140" rx="53" ry="26" fill="white" stroke="#161616" stroke-width="4" transform="rotate(9 330.0 340.0)"/>
<circle cx="312.0" cy="329.2" r="5" fill="#161616"/>
<circle cx="348.0" cy="329.2" r="5" fill="#161616"/>
<path d="M 304.0 355.2 Q 330.0 375.2 356.0 355.2" stroke="#161616" stroke-width="4" stroke-linecap="round" fill="none"/>
<path d="M 292.0 297.2 Q 330.0 259.2 366.0 297.2" stroke="#161616" stroke-width="4" stroke-linecap="round" fill="none"/>
<rect x="671" y="259" width="169" height="123" rx="50" ry="44" fill="white" stroke="#161616" stroke-width="4" transform="rotate(0 755.5 320.5)"/>
<circle cx="737.5" cy="310.04" r="5" fill="#161616"/>
<circle cx="773.5" cy="310.04" r="5" fill="#161616"/>
<path d="M 729.5 336.04 Q 755.5 356.04 781.5 336.04" stroke="#161616" stroke-width="4" stroke-linecap="round" fill="none"/>
<path d="M 717.5 278.04 Q 755.5 240.04000000000002 791.5 278.04" stroke="#161616" stroke-width="4" stroke-linecap="round" fill="none"/>
<rect x="744" y="404" width="158" height="107" rx="48" ry="54" fill="white" stroke="#161616" stroke-width="4" transform="rotate(-10 823.0 457.5)"/>
<circle cx="805.0" cy="447.36" r="5" fill="#161616"/>
<circle cx="841.0" cy="447.36" r="5" fill="#161616"/>
<path d="M 797.0 473.36 Q 823.0 493.36 849.0 473.36" stroke="#161616" stroke-width="4" stroke-linecap="round" fill="none"/>
<path d="M 785.0 415.36 Q 823.0 377.36 859.0 415.36" stroke="#161616" stroke-width="4" stroke-linecap="round" fill="none"/>
<text x="86" y="1125" font-family="Comic Sans MS, Bradley Hand, Segoe Print, sans-serif" font-size="30" fill="#404040">Sample product image 2 of 4</text>
<path d="M900 1090 C 970 1038, 1018 1156, 1114 1088" stroke="#161616" stroke-width="4" fill="none" stroke-linecap="round"/>
</svg>