<svg xmlns="http://www.w3.org/2000/svg" width="1200" height="1200" viewBox="0 0 1200 1200" fill="none">
  <rect width="1200" height="1200" fill="#ffe8f2"/>
  <rect x="42" y="42" width="1116" height="1116" rx="16" stroke="#161616" stroke-width="4"/>
  <path d="M74 110 C 210 72, 420 84, 520 112" stroke="#161616" stroke-width="4" stroke-linecap="round"/>
  <path d="M900 108 C 960 90, 1080 84, 1120 114" stroke="#161616" stroke-width="4" stroke-linecap="round"/>
  <text x="88" y="110" font-family="Comic Sans MS, Bradley Hand, Segoe Print, sans-serif" font-size="34" fill="#161616">Snoodle Doodles HQ</text>
  <text x="86" y="180" font-family="Comic Sans MS, Bradley Hand, Segoe Print, sans-serif" font-size="88" fill="#161616">Desk Chaos</text>
  <text x="86" y="255" font-family="Comic Sans MS, Bradley Hand, Segoe Print, sans-serif" font-size="66" fill="#161616">sticker pack</text>
  <text x="84" y="315" font-family="Comic Sans MS, Bradley Hand, Segoe Print, sans-serif" font-size="34" fill="#404040">Sticker detail</text>

<circle cx="567" cy="237" r="66" stroke="#161616" stroke-width="4" opacity="0.9"/>
<circle cx="707" cy="523" r="60" stroke="#161616" stroke-width="4" opacity="0.9"/>
<circle cx="783" cy="127" r="39" stroke="#161616" stroke-width="4" opacity="0.9"/>
<circle cx="355" cy="831" r="84" stroke="#161616" stroke-width="4" opacity="0.9"/>
<circle cx="903" cy="757" r="77" stroke="#161616" stroke-width="4" opacity="0.9"/>
<rect x="120" y="360" width="960" height="690" rx="20" fill="#fffdf8" stroke="#161616" stroke-width="4"/>
<rect x="346" y="390" width="80" height="133" rx="27" ry="41" fill="white" stroke="#161616" stroke-width="4" transform="rotate(-3 386.0 456.5)"/>
<circle cx="368.0" cy="445.84" r="5" fill="#161616"/>
<circle cx="404.0" cy="445.84" r="5" fill="#161616"/>
<path d="M 360.0 471.84 Q 386.0 491.84 412.0 471.84" stroke="#161616" stroke-width="4" stroke-linecap="round" fill="none"/>
<path d="M 348.0 413.84 Q 386.0 375.84 422.0 413.84" stroke="#161616" stroke-width="4" stroke-linecap="round" fill="none"/>
<rect x="590" y="443" width="162" height="83" rx="59" ry="37" fill="white" stroke="#161616" stroke-width="4" transform="rotate(-8 671.0 484.5)"/>
<circle cx="653.0" cy="474.84" r="5" fill="#161616"/>
<circle cx="689.0" cy="474.84" r="5" fill="#161616"/>
<path d="M 645.0 500.84 Q 671.0 520.8399999999999 697.0 500.84" stroke="#161616" stroke-width="4" stroke-linecap="round" fill="none"/>
<path d="M 633.0 442.84 Q 671.0 404.84 707.0 442.84" stroke="#161616" stroke-width="4" stroke-linecap="round" fill="none"/>
<rect x="225" y="652" width="156" height="80" rx="26" ry="54" fill="white" stroke="#161616" stroke-width="4" transform="rotate(2 303.0 692.0)"/>
<circle cx="285.0" cy="682.4" r="5" fill="#161616"/>
<circle cx="321.0" cy="682.4" r="5" fill="#161616"/>
<path d="M 277.0 708.4 Q 303.0 728.4 329.0 708.4" stroke="#161616" stroke-width="4" stroke-linecap="round" fill="none"/>
<path d="M 265.0 650.4 Q 303.0 612.4 339.0 650.4" stroke="#161616" stroke-width="4" stroke-linecap="round" fill="none"/>
<rect x="205" y="418" width="83" height="155" rx="38" ry="43" fill="white" stroke="#161616" stroke-width="4" transform="rotate(-6 246.5 495.5)"/>
<circle cx="228.5" cy="484.4" r="5" fill="#161616"/>
<circle cx="264.5" cy="484.4" r="5" fill="#161616"/>
<path d="M 220.5 510.4 Q 246.5 530.4 272.5 510.4" stroke="#161616" stroke-width="4" stroke-linecap="round" fill="none"/>
<path d="M 208.5 452.4 Q 246.5 414.4 282.5 452.4" stroke="#161616" stroke-width="4" stroke-linecap="round" fill="none"/>
<text x="86" y="1125" font-family="Comic Sans MS, Bradley Hand, Segoe Print, sans-serif" font-size="30" fill="#404040">Sample product image 4 of 4</text>
<path d="M900 1090 C 970 1038, 1018 1156, 1114 1088" stroke="#161616" stroke-width="4" fill="none" stroke-linecap="round"/>
</svg>