<svg xmlns="http://www.w3.org/2000/svg" width="1200" height="1200" viewBox="0 0 1200 1200" fill="none">
  <rect width="1200" height="1200" fill="#eef7e8"/>
  <rect x="42" y="42" width="1116" height="1116" rx="16" stroke="#161616" stroke-width="4"/>
  <path d="M74 110 C 210 72, 420 84, 520 112" stroke="#161616" stroke-width="4" stroke-linecap="round"/>
  <path d="M900 108 C 960 90, 1080 84, 1120 114" stroke="#161616" stroke-width="4" stroke-linecap="round"/>
  <text x="88" y="110" font-family="Comic Sans MS, Bradley Hand, Segoe Print, sans-serif" font-size="34" fill="#161616">Snoodle Doodles HQ</text>
  <text x="86" y="180" font-family="Comic Sans MS, Bradley Hand, Segoe Print, sans-serif" font-size="88" fill="#161616">Tea Time</text>
  <text x="86" y="255" font-family="Comic Sans MS, Bradley Hand, Segoe Print, sans-serif" font-size="66" fill="#161616">sticker pack</text>
  <text x="84" y="315" font-family="Comic Sans MS, Bradley Hand, Segoe Print, sans-serif" font-size="34" fill="#404040">Sheet view</text>

<circle cx="248" cy="538" r="70" stroke="#161616" stroke-width="4" opacity="0.9"/>
<circle cx="508" cy="760" r="44" stroke="#161616" stroke-width="4" opacity="0.9"/>
<circle cx="570" cy="331" r="76" stroke="#161616" stroke-width="4" opacity="0.9"/>
<circle cx="566" cy="634" r="37" stroke="#161616" stroke-width="4" opacity="0.9"/>
<circle cx="597" cy="650" r="41" stroke="#161616" stroke-width="4" opacity="0.9"/>
<rect x="120" y="360" width="960" height="690" rx="20" fill="#fffdf8" stroke="#161616" stroke-width="4"/>
<rect x="143" y="254" width="117" height="154" rx="27" ry="46" fill="white" stroke="#161616" stroke-width="4" transform="rotate(7 201.5 331.0)"/>
<circle cx="183.5" cy="319.92" r="5" fill="#161616"/>
<circle cx="219.5" cy="319.92" r="5" fill="#161616"/>
<path d="M 175.5 345.92 Q 201.5 365.92 227.5 345.92" stroke="#161616" stroke-width="4" stroke-linecap="round" fill="none"/>
<path d="M 163.5 287.92 Q 201.5 249.92000000000002 237.5 287.92" stroke="#161616" stroke-width="4" stroke-linecap="round" fill="none"/>
<rect x="578" y="310" width="88" height="176" rx="56" ry="32" fill="white" stroke="#161616" stroke-width="4" transform="rotate(10 622.0 398.0)"/>
<circle cx="604.0" cy="386.48" r="5" fill="#161616"/>
<circle cx="640.0" cy="386.48" r="5" fill="#161616"/>
<path d="M 596.0 412.48 Q 622.0 432.48 648.0 412.48" stroke="#161616" stroke-width="4" stroke-linecap="round" fill="none"/>
<path d="M 584.0 354.48 Q 622.0 316.48 658.0 354.48" stroke="#161616" stroke-width="4" stroke-linecap="round" fill="none"/>
<rect x="377" y="478" width="158" height="85" rx="48" ry="26" fill="white" stroke="#161616" stroke-width="4" transform="rotate(-6 456.0 520.5)"/>
<circle cx="438.0" cy="510.79999999999995" r="5" fill="#161616"/>
<circle cx="474.0" cy="510.79999999999995" r="5" fill="#161616"/>
<path d="M 430.0 536.8 Q 456.0 556.8 482.0 536.8" stroke="#161616" stroke-width="4" stroke-linecap="round" fill="none"/>
<path d="M 418.0 478.79999999999995 Q 456.0 440.79999999999995 492.0 478.79999999999995" stroke="#161616" stroke-width="4" stroke-linecap="round" fill="none"/>
<rect x="587" y="656" width="148" height="136" rx="30" ry="32" fill="white" stroke="#161616" stroke-width="4" transform="rotate(-10 661.0 724.0)"/>
<circle cx="643.0" cy="713.28" r="5" fill="#161616"/>
<circle cx="679.0" cy="713.28" r="5" fill="#161616"/>
<path d="M 635.0 739.28 Q 661.0 759.28 687.0 739.28" stroke="#161616" stroke-width="4" stroke-linecap="round" fill="none"/>
<path d="M 623.0 681.28 Q 661.0 643.28 697.0 681.28" stroke="#161616" stroke-width="4" stroke-linecap="round" fill="none"/>
<text x="86" y="1125" font-family="Comic Sans MS, Bradley Hand, Segoe Print, sans-serif" font-size="30" fill="#404040">Sample product image 1 of 4</text>
<path d="M900 1090 C 970 1038, 1018 1156, 1114 1088" stroke="#161616" stroke-width="4" fill="none" stroke-linecap="round"/>
</svg>