<svg xmlns="http://www.w3.org/2000/svg" width="1200" height="1200" viewBox="0 0 1200 1200" fill="none">
  <rect width="1200" height="1200" fill="#eef7e8"/>
  <rect x="42" y="42" width="1116" height="1116" rx="16" stroke="#161616" stroke-width="4"/>
  <path d="M74 110 C 210 72, 420 84, 520 112" stroke="#161616" stroke-width="4" stroke-linecap="round"/>
  <path d="M900 108 C 960 90, 1080 84, 1120 114" stroke="#161616" stroke-width="4" stroke-linecap="round"/>
  <text x="88" y="110" font-family="Comic Sans MS, Bradley Hand, Segoe Print, sans-serif" font-size="34" fill="#161616">Snoodle Doodles HQ</text>
  <text x="86" y="180" font-family="Comic Sans MS, Bradley Hand, Segoe Print, sans-serif" font-size="88" fill="#161616">Tea Time</text>
  <text x="86" y="255" font-family="Comic Sans MS, Bradley Hand, Segoe Print, sans-serif" font-size="66" fill="#161616">sticker pack</text>
  <text x="84" y="315" font-family="Comic Sans MS, Bradley Hand, Segoe Print, sans-serif" font-size="34" fill="#404040">Close-up</text>

<circle cx="223" cy="358" r="27" stroke="#161616" stroke-width="4" opacity="0.9"/>
<circle cx="707" cy="567" r="37" stroke="#161616" stroke-width="4" opacity="0.9"/>
<circle cx="798" cy="233" r="73" stroke="#161616" stroke-width="4" opacity="0.9"/>
<circle cx="747" cy="463" r="76" stroke="#161616" stroke-width="4" opacity="0.9"/>
<circle cx="161" cy="347" r="43" stroke="#161616" stroke-width="4" opacity="0.9"/>
<rect x="120" y="360" width="960" height="690" rx="20" fill="#fffdf8" stroke="#161616" stroke-width="4"/>
<rect x="190" y="567" width="146" height="102" rx="32" ry="58" fill="white" stroke="#161616" stroke-width="4" transform="rotate(8 263.0 618.0)"/>
<circle cx="245.0" cy="607.96" r="5" fill="#161616"/>
<circle cx="281.0" cy="607.96" r="5" fill="#161616"/>
<path d="M 237.0 633.96 Q 263.0 653.96 289.0 633.96" stroke="#161616" stroke-width="4" stroke-linecap="round" fill="none"/>
<path d="M 225.0 575.96 Q 263.0 537.96 299.0 575.96" stroke="#161616" stroke-width="4" stroke-linecap="round" fill="none"/>
<rect x="705" y="680" width="160" height="86" rx="28" ry="45" fill="white" stroke="#161616" stroke-width="4" transform="rotate(9 785.0 723.0)"/>
<circle cx="767.0" cy="713.28" r="5" fill="#161616"/>
<circle cx="803.0" cy="713.28" r="5" fill="#161616"/>
<path d="M 759.0 739.28 Q 785.0 759.28 811.0 739.28" stroke="#161616" stroke-width="4" stroke-linecap="round" fill="none"/>
<path d="M 747.0 681.28 Q 785.0 643.28 821.0 681.28" stroke="#161616" stroke-width="4" stroke-linecap="round" fill="none"/>
<rect x="730" y="261" width="145" height="113" rx="46" ry="41" fill="white" stroke="#161616" stroke-width="4" transform="rotate(-5 802.5 317.5)"/>
<circle cx="784.5" cy="307.24" r="5" fill="#161616"/>
<circle cx="820.5" cy="307.24" r="5" fill="#161616"/>
<path d="M 776.5 333.24 Q 802.5 353.24 828.5 333.24" stroke="#161616" stroke-width="4" stroke-linecap="round" fill="none"/>
<path d="M 764.5 275.24 Q 802.5 237.24 838.5 275.24" stroke="#161616" stroke-width="4" stroke-linecap="round" fill="none"/>
<rect x="458" y="671" width="94" height="103" rx="50" ry="44" fill="white" stroke="#161616" stroke-width="4" transform="rotate(10 505.0 722.5)"/>
<circle cx="487.0" cy="712.44" r="5" fill="#161616"/>
<circle cx="523.0" cy="712.44" r="5" fill="#161616"/>
<path d="M 479.0 738.44 Q 505.0 758.44 531.0 738.44" stroke="#161616" stroke-width="4" stroke-linecap="round" fill="none"/>
<path d="M 467.0 680.44 Q 505.0 642.44 541.0 680.44" stroke="#161616" stroke-width="4" stroke-linecap="round" fill="none"/>
<text x="86" y="1125" font-family="Comic Sans MS, Bradley Hand, Segoe Print, sans-serif" font-size="30" fill="#404040">Sample product image 2 of 4</text>
<path d="M900 1090 C 970 1038, 1018 1156, 1114 1088" stroke="#161616" stroke-width="4" fill="none" stroke-linecap="round"/>
</svg>