<svg xmlns="http://www.w3.org/2000/svg" width="1200" height="1200" viewBox="0 0 1200 1200" fill="none">
  <rect width="1200" height="1200" fill="#eef7e8"/>
  <rect x="42" y="42" width="1116" height="1116" rx="16" stroke="#161616" stroke-width="4"/>
  <path d="M74 110 C 210 72, 420 84, 520 112" stroke="#161616" stroke-width="4" stroke-linecap="round"/>
  <path d="M900 108 C 960 90, 1080 84, 1120 114" stroke="#161616" stroke-width="4" stroke-linecap="round"/>
  <text x="88" y="110" font-family="Comic Sans MS, Bradley Hand, Segoe Print, sans-serif" font-size="34" fill="#161616">Snoodle Doodles HQ</text>
  <text x="86" y="180" font-family="Comic Sans MS, Bradley Hand, Segoe Print, sans-serif" font-size="88" fill="#161616">Tea Time</text>
  <text x="86" y="255" font-family="Comic Sans MS, Bradley Hand, Segoe Print, sans-serif" font-size="66" fill="#161616">sticker pack</text>
  <text x="84" y="315" font-family="Comic Sans MS, Bradley Hand, Segoe Print, sans-serif" font-size="34" fill="#404040">Sticker detail</text>

<circle cx="809" cy="502" r="79" stroke="#161616" stroke-width="4" opacity="0.9"/>
<circle cx="676" cy="296" r="39" stroke="#161616" stroke-width="4" opacity="0.9"/>
<circle cx="251" cy="308" r="36" stroke="#161616" stroke-width="4" opacity="0.9"/>
<circle cx="766" cy="808" r="31" stroke="#161616" stroke-width="4" opacity="0.9"/>
<circle cx="802" cy="885" r="35" stroke="#161616" stroke-width="4" opacity="0.9"/>
<rect x="120" y="360" width="960" height="690" rx="20" fill="#fffdf8" stroke="#161616" stroke-width="4"/>
<rect x="430" y="253" width="126" height="139" rx="41" ry="35" fill="white" stroke="#161616" stroke-width="4" transform="rotate(0 493.0 322.5)"/>
<circle cx="475.0" cy="311.72" r="5" fill="#161616"/>
<circle cx="511.0" cy="311.72" r="5" fill="#161616"/>
<path d="M 467.0 337.72 Q 493.0 357.72 519.0 337.72" stroke="#161616" stroke-width="4" stroke-linecap="round" fill="none"/>
<path d="M 455.0 279.72 Q 493.0 241.72000000000003 529.0 279.72" stroke="#161616" stroke-width="4" stroke-linecap="round" fill="none"/>
<rect x="790" y="358" width="73" height="146" rx="44" ry="29" fill="white" stroke="#161616" stroke-width="4" transform="rotate(7 826.5 431.0)"/>
<circle cx="808.5" cy="420.08" r="5" fill="#161616"/>
<circle cx="844.5" cy="420.08" r="5" fill="#161616"/>
<path d="M 800.5 446.08 Q 826.5 466.08 852.5 446.08" stroke="#161616" stroke-width="4" stroke-linecap="round" fill="none"/>
<path d="M 788.5 388.08 Q 826.5 350.08 862.5 388.08" stroke="#161616" stroke-width="4" stroke-linecap="round" fill="none"/>
<rect x="312" y="743" width="164" height="136" rx="48" ry="27" fill="white" stroke="#161616" stroke-width="4" transform="rotate(-4 394.0 811.0)"/>
<circle cx="376.0" cy="800.28" r="5" fill="#161616"/>
<circle cx="412.0" cy="800.28" r="5" fill="#161616"/>
<path d="M 368.0 826.28 Q 394.0 846.28 420.0 826.28" stroke="#161616" stroke-width="4" stroke-linecap="round" fill="none"/>
<path d="M 356.0 768.28 Q 394.0 730.28 430.0 768.28" stroke="#161616" stroke-width="4" stroke-linecap="round" fill="none"/>
<rect x="838" y="551" width="133" height="90" rx="45" ry="46" fill="white" stroke="#161616" stroke-width="4" transform="rotate(-8 904.5 596.0)"/>
<circle cx="886.5" cy="586.2" r="5" fill="#161616"/>
<circle cx="922.5" cy="586.2" r="5" fill="#161616"/>
<path d="M 878.5 612.2 Q 904.5 632.2 930.5 612.2" stroke="#161616" stroke-width="4" stroke-linecap="round" fill="none"/>
<path d="M 866.5 554.2 Q 904.5 516.2 940.5 554.2" stroke="#161616" stroke-width="4" stroke-linecap="round" fill="none"/>
<text x="86" y="1125" font-family="Comic Sans MS, Bradley Hand, Segoe Print, sans-serif" font-size="30" fill="#404040">Sample product image 4 of 4</text>
<path d="M900 1090 C 970 1038, 1018 1156, 1114 1088" stroke="#161616" stroke-width="4" fill="none" stroke-linecap="round"/>
</svg>