<svg xmlns="http://www.w3.org/2000/svg" width="1200" height="1200" viewBox="0 0 1200 1200" fill="none">
  <rect width="1200" height="1200" fill="#f7eefc"/>
  <rect x="42" y="42" width="1116" height="1116" rx="16" stroke="#161616" stroke-width="4"/>
  <path d="M74 110 C 210 72, 420 84, 520 112" stroke="#161616" stroke-width="4" stroke-linecap="round"/>
  <path d="M900 108 C 960 90, 1080 84, 1120 114" stroke="#161616" stroke-width="4" stroke-linecap="round"/>
  <text x="88" y="110" font-family="Comic Sans MS, Bradley Hand, Segoe Print, sans-serif" font-size="34" fill="#161616">Snoodle Doodles HQ</text>
  <text x="86" y="180" font-family="Comic Sans MS, Bradley Hand, Segoe Print, sans-serif" font-size="88" fill="#161616">Mail Day</text>
  <text x="86" y="255" font-family="Comic Sans MS, Bradley Hand, Segoe Print, sans-serif" font-size="66" fill="#161616">sticker pack</text>
  <text x="84" y="315" font-family="Comic Sans MS, Bradley Hand, Segoe Print, sans-serif" font-size="34" fill="#404040">Sheet view</text>

<circle cx="297" cy="433" r="57" stroke="#161616" stroke-width="4" opacity="0.9"/>
<circle cx="278" cy="517" r="52" stroke="#161616" stroke-width="4" opacity="0.9"/>
<circle cx="711" cy="283" r="66" stroke="#161616" stroke-width="4" opacity="0.9"/>
<circle cx="278" cy="824" r="52" stroke="#161616" stroke-width="4" opacity="0.9"/>
<circle cx="652" cy="345" r="37" stroke="#161616" stroke-width="4" opacity="0.9"/>
<rect x="120" y="360" width="960" height="690" rx="20" fill="#fffdf8" stroke="#161616" stroke-width="4"/>
<rect x="826" y="714" width="123" height="129" rx="51" ry="29" fill="white" stroke="#161616" stroke-width="4" transform="rotate(3 887.5 778.5)"/>
<circle cx="869.5" cy="767.92" r="5" fill="#161616"/>
<circle cx="905.5" cy="767.92" r="5" fill="#161616"/>
<path d="M 861.5 793.92 Q 887.5 813.92 913.5 793.92" stroke="#161616" stroke-width="4" stroke-linecap="round" fill="none"/>
<path d="M 849.5 735.92 Q 887.5 697.92 923.5 735.92" stroke="#161616" stroke-width="4" stroke-linecap="round" fill="none"/>
<rect x="424" y="627" width="98" height="171" rx="57" ry="31" fill="white" stroke="#161616" stroke-width="4" transform="rotate(-1 473.0 712.5)"/>
<circle cx="455.0" cy="701.08" r="5" fill="#161616"/>
<circle cx="491.0" cy="701.08" r="5" fill="#161616"/>
<path d="M 447.0 727.08 Q 473.0 747.08 499.0 727.08" stroke="#161616" stroke-width="4" stroke-linecap="round" fill="none"/>
<path d="M 435.0 669.08 Q 473.0 631.08 509.0 669.08" stroke="#161616" stroke-width="4" stroke-linecap="round" fill="none"/>
<rect x="498" y="751" width="172" height="84" rx="31" ry="46" fill="white" stroke="#161616" stroke-width="4" transform="rotate(4 584.0 793.0)"/>
<circle cx="566.0" cy="783.32" r="5" fill="#161616"/>
<circle cx="602.0" cy="783.32" r="5" fill="#161616"/>
<path d="M 558.0 809.32 Q 584.0 829.32 610.0 809.32" stroke="#161616" stroke-width="4" stroke-linecap="round" fill="none"/>
<path d="M 546.0 751.32 Q 584.0 713.32 620.0 751.32" stroke="#161616" stroke-width="4" stroke-linecap="round" fill="none"/>
<rect x="460" y="484" width="142" height="137" rx="38" ry="46" fill="white" stroke="#161616" stroke-width="4" transform="rotate(-3 531.0 552.5)"/>
<circle cx="513.0" cy="541.76" r="5" fill="#161616"/>
<circle cx="549.0" cy="541.76" r="5" fill="#161616"/>
<path d="M 505.0 567.76 Q 531.0 587.76 557.0 567.76" stroke="#161616" stroke-width="4" stroke-linecap="round" fill="none"/>
<path d="M 493.0 509.76 Q 531.0 471.76 567.0 509.76" stroke="#161616" stroke-width="4" stroke-linecap="round" fill="none"/>
<text x="86" y="1125" font-family="Comic Sans MS, Bradley Hand, Segoe Print, sans-serif" font-size="30" fill="#404040">Sample product image 1 of 4</text>
<path d="M900 1090 C 970 1038, 1018 1156, 1114 1088" stroke="#161616" stroke-width="4" fill="none" stroke-linecap="round"/>
</svg>