<svg xmlns="http://www.w3.org/2000/svg" width="1200" height="1200" viewBox="0 0 1200 1200" fill="none">
  <rect width="1200" height="1200" fill="#f7eefc"/>
  <rect x="42" y="42" width="1116" height="1116" rx="16" stroke="#161616" stroke-width="4"/>
  <path d="M74 110 C 210 72, 420 84, 520 112" stroke="#161616" stroke-width="4" stroke-linecap="round"/>
  <path d="M900 108 C 960 90, 1080 84, 1120 114" stroke="#161616" stroke-width="4" stroke-linecap="round"/>
  <text x="88" y="110" font-family="Comic Sans MS, Bradley Hand, Segoe Print, sans-serif" font-size="34" fill="#161616">Snoodle Doodles HQ</text>
  <text x="86" y="180" font-family="Comic Sans MS, Bradley Hand, Segoe Print, sans-serif" font-size="88" fill="#161616">Mail Day</text>
  <text x="86" y="255" font-family="Comic Sans MS, Bradley Hand, Segoe Print, sans-serif" font-size="66" fill="#161616">sticker pack</text>
  <text x="84" y="315" font-family="Comic Sans MS, Bradley Hand, Segoe Print, sans-serif" font-size="34" fill="#404040">Close-up</text>

<circle cx="572" cy="792" r="63" stroke="#161616" stroke-width="4" opacity="0.9"/>
<circle cx="714" cy="416" r="70" stroke="#161616" stroke-width="4" opacity="0.9"/>
<circle cx="556" cy="541" r="74" stroke="#161616" stroke-width="4" opacity="0.9"/>
<circle cx="759" cy="276" r="49" stroke="#161616" stroke-width="4" opacity="0.9"/>
<circle cx="306" cy="648" r="55" stroke="#161616" stroke-width="4" opacity="0.9"/>
<rect x="120" y="360" width="960" height="690" rx="20" fill="#fffdf8" stroke="#161616" stroke-width="4"/>
<rect x="167" y="639" width="146" height="110" rx="58" ry="47" fill="white" stroke="#161616" stroke-width="4" transform="rotate(3 240.0 694.0)"/>
<circle cx="222.0" cy="683.8" r="5" fill="#161616"/>
<circle cx="258.0" cy="683.8" r="5" fill="#161616"/>
<path d="M 214.0 709.8 Q 240.0 729.8 266.0 709.8" stroke="#161616" stroke-width="4" stroke-linecap="round" fill="none"/>
<path d="M 202.0 651.8 Q 240.0 613.8 276.0 651.8" stroke="#161616" stroke-width="4" stroke-linecap="round" fill="none"/>
<rect x="606" y="719" width="103" height="124" rx="50" ry="41" fill="white" stroke="#161616" stroke-width="4" transform="rotate(-10 657.5 781.0)"/>
<circle cx="639.5" cy="770.52" r="5" fill="#161616"/>
<circle cx="675.5" cy="770.52" r="5" fill="#161616"/>
<path d="M 631.5 796.52 Q 657.5 816.52 683.5 796.52" stroke="#161616" stroke-width="4" stroke-linecap="round" fill="none"/>
<path d="M 619.5 738.52 Q 657.5 700.52 693.5 738.52" stroke="#161616" stroke-width="4" stroke-linecap="round" fill="none"/>
<rect x="339" y="472" width="163" height="157" rx="29" ry="29" fill="white" stroke="#161616" stroke-width="4" transform="rotate(-3 420.5 550.5)"/>
<circle cx="402.5" cy="539.36" r="5" fill="#161616"/>
<circle cx="438.5" cy="539.36" r="5" fill="#161616"/>
<path d="M 394.5 565.36 Q 420.5 585.36 446.5 565.36" stroke="#161616" stroke-width="4" stroke-linecap="round" fill="none"/>
<path d="M 382.5 507.36 Q 420.5 469.36 456.5 507.36" stroke="#161616" stroke-width="4" stroke-linecap="round" fill="none"/>
<rect x="829" y="411" width="165" height="137" rx="44" ry="50" fill="white" stroke="#161616" stroke-width="4" transform="rotate(10 911.5 479.5)"/>
<circle cx="893.5" cy="468.76" r="5" fill="#161616"/>
<circle cx="929.5" cy="468.76" r="5" fill="#161616"/>
<path d="M 885.5 494.76 Q 911.5 514.76 937.5 494.76" stroke="#161616" stroke-width="4" stroke-linecap="round" fill="none"/>
<path d="M 873.5 436.76 Q 911.5 398.76 947.5 436.76" stroke="#161616" stroke-width="4" stroke-linecap="round" fill="none"/>
<text x="86" y="1125" font-family="Comic Sans MS, Bradley Hand, Segoe Print, sans-serif" font-size="30" fill="#404040">Sample product image 2 of 4</text>
<path d="M900 1090 C 970 1038, 1018 1156, 1114 1088" stroke="#161616" stroke-width="4" fill="none" stroke-linecap="round"/>
</svg>