<svg xmlns="http://www.w3.org/2000/svg" width="1200" height="1200" viewBox="0 0 1200 1200" fill="none">
  <rect width="1200" height="1200" fill="#f7eefc"/>
  <rect x="42" y="42" width="1116" height="1116" rx="16" stroke="#161616" stroke-width="4"/>
  <path d="M74 110 C 210 72, 420 84, 520 112" stroke="#161616" stroke-width="4" stroke-linecap="round"/>
  <path d="M900 108 C 960 90, 1080 84, 1120 114" stroke="#161616" stroke-width="4" stroke-linecap="round"/>
  <text x="88" y="110" font-family="Comic Sans MS, Bradley Hand, Segoe Print, sans-serif" font-size="34" fill="#161616">Snoodle Doodles HQ</text>
  <text x="86" y="180" font-family="Comic Sans MS, Bradley Hand, Segoe Print, sans-serif" font-size="88" fill="#161616">Mail Day</text>
  <text x="86" y="255" font-family="Comic Sans MS, Bradley Hand, Segoe Print, sans-serif" font-size="66" fill="#161616">sticker pack</text>
  <text x="84" y="315" font-family="Comic Sans MS, Bradley Hand, Segoe Print, sans-serif" font-size="34" fill="#404040">Pack spread</text>

<circle cx="111" cy="779" r="81" stroke="#161616" stroke-width="4" opacity="0.9"/>
<circle cx="911" cy="849" r="43" stroke="#161616" stroke-width="4" opacity="0.9"/>
<circle cx="98" cy="599" r="61" stroke="#161616" stroke-width="4" opacity="0.9"/>
<circle cx="436" cy="354" r="53" stroke="#161616" stroke-width="4" opacity="0.9"/>
<circle cx="111" cy="179" r="45" stroke="#161616" stroke-width="4" opacity="0.9"/>
<rect x="120" y="360" width="960" height="690" rx="20" fill="#fffdf8" stroke="#161616" stroke-width="4"/>
<rect x="269" y="545" width="133" height="116" rx="39" ry="42" fill="white" stroke="#161616" stroke-width="4" transform="rotate(10 335.5 603.0)"/>
<circle cx="317.5" cy="592.68" r="5" fill="#161616"/>
<circle cx="353.5" cy="592.68" r="5" fill="#161616"/>
<path d="M 309.5 618.68 Q 335.5 638.68 361.5 618.68" stroke="#161616" stroke-width="4" stroke-linecap="round" fill="none"/>
<path d="M 297.5 560.68 Q 335.5 522.68 371.5 560.68" stroke="#161616" stroke-width="4" stroke-linecap="round" fill="none"/>
<rect x="449" y="683" width="113" height="130" rx="56" ry="54" fill="white" stroke="#161616" stroke-width="4" transform="rotate(-5 505.5 748.0)"/>
<circle cx="487.5" cy="737.4" r="5" fill="#161616"/>
<circle cx="523.5" cy="737.4" r="5" fill="#161616"/>
<path d="M 479.5 763.4 Q 505.5 783.4 531.5 763.4" stroke="#161616" stroke-width="4" stroke-linecap="round" fill="none"/>
<path d="M 467.5 705.4 Q 505.5 667.4 541.5 705.4" stroke="#161616" stroke-width="4" stroke-linecap="round" fill="none"/>
<rect x="338" y="718" width="119" height="119" rx="42" ry="51" fill="white" stroke="#161616" stroke-width="4" transform="rotate(-2 397.5 777.5)"/>
<circle cx="379.5" cy="767.12" r="5" fill="#161616"/>
<circle cx="415.5" cy="767.12" r="5" fill="#161616"/>
<path d="M 371.5 793.12 Q 397.5 813.12 423.5 793.12" stroke="#161616" stroke-width="4" stroke-linecap="round" fill="none"/>
<path d="M 359.5 735.12 Q 397.5 697.12 433.5 735.12" stroke="#161616" stroke-width="4" stroke-linecap="round" fill="none"/>
<rect x="179" y="600" width="92" height="159" rx="37" ry="37" fill="white" stroke="#161616" stroke-width="4" transform="rotate(-10 225.0 679.5)"/>
<circle cx="207.0" cy="668.3199999999999" r="5" fill="#161616"/>
<circle cx="243.0" cy="668.3199999999999" r="5" fill="#161616"/>
<path d="M 199.0 694.3199999999999 Q 225.0 714.3199999999999 251.0 694.3199999999999" stroke="#161616" stroke-width="4" stroke-linecap="round" fill="none"/>
<path d="M 187.0 636.3199999999999 Q 225.0 598.3199999999999 261.0 636.3199999999999" stroke="#161616" stroke-width="4" stroke-linecap="round" fill="none"/>
<text x="86" y="1125" font-family="Comic Sans MS, Bradley Hand, Segoe Print, sans-serif" font-size="30" fill="#404040">Sample product image 3 of 4</text>
<path d="M900 1090 C 970 1038, 1018 1156, 1114 1088" stroke="#161616" stroke-width="4" fill="none" stroke-linecap="round"/>
</svg>