<svg xmlns="http://www.w3.org/2000/svg" width="1200" height="1200" viewBox="0 0 1200 1200" fill="none">
  <rect width="1200" height="1200" fill="#f7eefc"/>
  <rect x="42" y="42" width="1116" height="1116" rx="16" stroke="#161616" stroke-width="4"/>
  <path d="M74 110 C 210 72, 420 84, 520 112" stroke="#161616" stroke-width="4" stroke-linecap="round"/>
  <path d="M900 108 C 960 90, 1080 84, 1120 114" stroke="#161616" stroke-width="4" stroke-linecap="round"/>
  <text x="88" y="110" font-family="Comic Sans MS, Bradley Hand, Segoe Print, sans-serif" font-size="34" fill="#161616">Snoodle Doodles HQ</text>
  <text x="86" y="180" font-family="Comic Sans MS, Bradley Hand, Segoe Print, sans-serif" font-size="88" fill="#161616">Mail Day</text>
  <text x="86" y="255" font-family="Comic Sans MS, Bradley Hand, Segoe Print, sans-serif" font-size="66" fill="#161616">sticker pack</text>
  <text x="84" y="315" font-family="Comic Sans MS, Bradley Hand, Segoe Print, sans-serif" font-size="34" fill="#404040">Sticker detail</text>

<circle cx="326" cy="686" r="32" stroke="#161616" stroke-width="4" opacity="0.9"/>
<circle cx="424" cy="791" r="41" stroke="#161616" stroke-width="4" opacity="0.9"/>
<circle cx="721" cy="749" r="29" stroke="#161616" stroke-width="4" opacity="0.9"/>
<circle cx="237" cy="641" r="59" stroke="#161616" stroke-width="4" opacity="0.9"/>
<circle cx="770" cy="639" r="44" stroke="#161616" stroke-width="4" opacity="0.9"/>
<rect x="120" y="360" width="960" height="690" rx="20" fill="#fffdf8" stroke="#161616" stroke-width="4"/>
<rect x="735" y="305" width="138" height="180" rx="52" ry="54" fill="white" stroke="#161616" stroke-width="4" transform="rotate(-3 804.0 395.0)"/>
<circle cx="786.0" cy="383.4" r="5" fill="#161616"/>
<circle cx="822.0" cy="383.4" r="5" fill="#161616"/>
<path d="M 778.0 409.4 Q 804.0 429.4 830.0 409.4" stroke="#161616" stroke-width="4" stroke-linecap="round" fill="none"/>
<path d="M 766.0 351.4 Q 804.0 313.4 840.0 351.4" stroke="#161616" stroke-width="4" stroke-linecap="round" fill="none"/>
<rect x="521" y="585" width="160" height="93" rx="55" ry="39" fill="white" stroke="#161616" stroke-width="4" transform="rotate(0 601.0 631.5)"/>
<circle cx="583.0" cy="621.64" r="5" fill="#161616"/>
<circle cx="619.0" cy="621.64" r="5" fill="#161616"/>
<path d="M 575.0 647.64 Q 601.0 667.64 627.0 647.64" stroke="#161616" stroke-width="4" stroke-linecap="round" fill="none"/>
<path d="M 563.0 589.64 Q 601.0 551.64 637.0 589.64" stroke="#161616" stroke-width="4" stroke-linecap="round" fill="none"/>
<rect x="235" y="713" width="120" height="94" rx="44" ry="31" fill="white" stroke="#161616" stroke-width="4" transform="rotate(-8 295.0 760.0)"/>
<circle cx="277.0" cy="750.12" r="5" fill="#161616"/>
<circle cx="313.0" cy="750.12" r="5" fill="#161616"/>
<path d="M 269.0 776.12 Q 295.0 796.12 321.0 776.12" stroke="#161616" stroke-width="4" stroke-linecap="round" fill="none"/>
<path d="M 257.0 718.12 Q 295.0 680.12 331.0 718.12" stroke="#161616" stroke-width="4" stroke-linecap="round" fill="none"/>
<rect x="753" y="548" width="117" height="147" rx="33" ry="41" fill="white" stroke="#161616" stroke-width="4" transform="rotate(1 811.5 621.5)"/>
<circle cx="793.5" cy="610.56" r="5" fill="#161616"/>
<circle cx="829.5" cy="610.56" r="5" fill="#161616"/>
<path d="M 785.5 636.56 Q 811.5 656.56 837.5 636.56" stroke="#161616" stroke-width="4" stroke-linecap="round" fill="none"/>
<path d="M 773.5 578.56 Q 811.5 540.56 847.5 578.56" stroke="#161616" stroke-width="4" stroke-linecap="round" fill="none"/>
<text x="86" y="1125" font-family="Comic Sans MS, Bradley Hand, Segoe Print, sans-serif" font-size="30" fill="#404040">Sample product image 4 of 4</text>
<path d="M900 1090 C 970 1038, 1018 1156, 1114 1088" stroke="#161616" stroke-width="4" fill="none" stroke-linecap="round"/>
</svg>