<svg xmlns="http://www.w3.org/2000/svg" width="1200" height="1200" viewBox="0 0 1200 1200" fill="none">
  <rect width="1200" height="1200" fill="#e9f6ff"/>
  <rect x="42" y="42" width="1116" height="1116" rx="16" stroke="#161616" stroke-width="4"/>
  <path d="M74 110 C 210 72, 420 84, 520 112" stroke="#161616" stroke-width="4" stroke-linecap="round"/>
  <path d="M900 108 C 960 90, 1080 84, 1120 114" stroke="#161616" stroke-width="4" stroke-linecap="round"/>
  <text x="88" y="110" font-family="Comic Sans MS, Bradley Hand, Segoe Print, sans-serif" font-size="34" fill="#161616">Snoodle Doodles HQ</text>
  <text x="86" y="180" font-family="Comic Sans MS, Bradley Hand, Segoe Print, sans-serif" font-size="88" fill="#161616">Sleepy Ghost</text>
  <text x="86" y="255" font-family="Comic Sans MS, Bradley Hand, Segoe Print, sans-serif" font-size="66" fill="#161616">sticker pack</text>
  <text x="84" y="315" font-family="Comic Sans MS, Bradley Hand, Segoe Print, sans-serif" font-size="34" fill="#404040">Sheet view</text>

<circle cx="92" cy="590" r="33" stroke="#161616" stroke-width="4" opacity="0.9"/>
<circle cx="862" cy="512" r="35" stroke="#161616" stroke-width="4" opacity="0.9"/>
<circle cx="780" cy="154" r="34" stroke="#161616" stroke-width="4" opacity="0.9"/>
<circle cx="195" cy="658" r="40" stroke="#161616" stroke-width="4" opacity="0.9"/>
<circle cx="808" cy="885" r="34" stroke="#161616" stroke-width="4" opacity="0.9"/>
<rect x="120" y="360" width="960" height="690" rx="20" fill="#fffdf8" stroke="#161616" stroke-width="4"/>
<rect x="290" y="273" width="154" height="87" rx="50" ry="46" fill="white" stroke="#161616" stroke-width="4" transform="rotate(-4 367.0 316.5)"/>
<circle cx="349.0" cy="306.76" r="5" fill="#161616"/>
<circle cx="385.0" cy="306.76" r="5" fill="#161616"/>
<path d="M 341.0 332.76 Q 367.0 352.76 393.0 332.76" stroke="#161616" stroke-width="4" stroke-linecap="round" fill="none"/>
<path d="M 329.0 274.76 Q 367.0 236.76 403.0 274.76" stroke="#161616" stroke-width="4" stroke-linecap="round" fill="none"/>
<rect x="279" y="476" width="138" height="173" rx="38" ry="46" fill="white" stroke="#161616" stroke-width="4" transform="rotate(2 348.0 562.5)"/>
<circle cx="330.0" cy="551.04" r="5" fill="#161616"/>
<circle cx="366.0" cy="551.04" r="5" fill="#161616"/>
<path d="M 322.0 577.04 Q 348.0 597.04 374.0 577.04" stroke="#161616" stroke-width="4" stroke-linecap="round" fill="none"/>
<path d="M 310.0 519.04 Q 348.0 481.03999999999996 384.0 519.04" stroke="#161616" stroke-width="4" stroke-linecap="round" fill="none"/>
<rect x="598" y="662" width="96" height="155" rx="48" ry="40" fill="white" stroke="#161616" stroke-width="4" transform="rotate(-4 646.0 739.5)"/>
<circle cx="628.0" cy="728.4" r="5" fill="#161616"/>
<circle cx="664.0" cy="728.4" r="5" fill="#161616"/>
<path d="M 620.0 754.4 Q 646.0 774.4 672.0 754.4" stroke="#161616" stroke-width="4" stroke-linecap="round" fill="none"/>
<path d="M 608.0 696.4 Q 646.0 658.4 682.0 696.4" stroke="#161616" stroke-width="4" stroke-linecap="round" fill="none"/>
<rect x="235" y="360" width="72" height="178" rx="38" ry="51" fill="white" stroke="#161616" stroke-width="4" transform="rotate(8 271.0 449.0)"/>
<circle cx="253.0" cy="437.44" r="5" fill="#161616"/>
<circle cx="289.0" cy="437.44" r="5" fill="#161616"/>
<path d="M 245.0 463.44 Q 271.0 483.44 297.0 463.44" stroke="#161616" stroke-width="4" stroke-linecap="round" fill="none"/>
<path d="M 233.0 405.44 Q 271.0 367.44 307.0 405.44" stroke="#161616" stroke-width="4" stroke-linecap="round" fill="none"/>
<text x="86" y="1125" font-family="Comic Sans MS, Bradley Hand, Segoe Print, sans-serif" font-size="30" fill="#404040">Sample product image 1 of 4</text>
<path d="M900 1090 C 970 1038, 1018 1156, 1114 1088" stroke="#161616" stroke-width="4" fill="none" stroke-linecap="round"/>
</svg>