<svg xmlns="http://www.w3.org/2000/svg" width="1200" height="1200" viewBox="0 0 1200 1200" fill="none">
  <rect width="1200" height="1200" fill="#e9f6ff"/>
  <rect x="42" y="42" width="1116" height="1116" rx="16" stroke="#161616" stroke-width="4"/>
  <path d="M74 110 C 210 72, 420 84, 520 112" stroke="#161616" stroke-width="4" stroke-linecap="round"/>
  <path d="M900 108 C 960 90, 1080 84, 1120 114" stroke="#161616" stroke-width="4" stroke-linecap="round"/>
  <text x="88" y="110" font-family="Comic Sans MS, Bradley Hand, Segoe Print, sans-serif" font-size="34" fill="#161616">Snoodle Doodles HQ</text>
  <text x="86" y="180" font-family="Comic Sans MS, Bradley Hand, Segoe Print, sans-serif" font-size="88" fill="#161616">Sleepy Ghost</text>
  <text x="86" y="255" font-family="Comic Sans MS, Bradley Hand, Segoe Print, sans-serif" font-size="66" fill="#161616">sticker pack</text>
  <text x="84" y="315" font-family="Comic Sans MS, Bradley Hand, Segoe Print, sans-serif" font-size="34" fill="#404040">Close-up</text>

<circle cx="159" cy="328" r="35" stroke="#161616" stroke-width="4" opacity="0.9"/>
<circle cx="390" cy="825" r="83" stroke="#161616" stroke-width="4" opacity="0.9"/>
<circle cx="323" cy="618" r="27" stroke="#161616" stroke-width="4" opacity="0.9"/>
<circle cx="817" cy="149" r="32" stroke="#161616" stroke-width="4" opacity="0.9"/>
<circle cx="412" cy="631" r="47" stroke="#161616" stroke-width="4" opacity="0.9"/>
<rect x="120" y="360" width="960" height="690" rx="20" fill="#fffdf8" stroke="#161616" stroke-width="4"/>
<rect x="198" y="720" width="117" height="156" rx="32" ry="27" fill="white" stroke="#161616" stroke-width="4" transform="rotate(6 256.5 798.0)"/>
<circle cx="238.5" cy="786.88" r="5" fill="#161616"/>
<circle cx="274.5" cy="786.88" r="5" fill="#161616"/>
<path d="M 230.5 812.88 Q 256.5 832.88 282.5 812.88" stroke="#161616" stroke-width="4" stroke-linecap="round" fill="none"/>
<path d="M 218.5 754.88 Q 256.5 716.88 292.5 754.88" stroke="#161616" stroke-width="4" stroke-linecap="round" fill="none"/>
<rect x="140" y="369" width="137" height="81" rx="32" ry="35" fill="white" stroke="#161616" stroke-width="4" transform="rotate(4 208.5 409.5)"/>
<circle cx="190.5" cy="399.88" r="5" fill="#161616"/>
<circle cx="226.5" cy="399.88" r="5" fill="#161616"/>
<path d="M 182.5 425.88 Q 208.5 445.88 234.5 425.88" stroke="#161616" stroke-width="4" stroke-linecap="round" fill="none"/>
<path d="M 170.5 367.88 Q 208.5 329.88 244.5 367.88" stroke="#161616" stroke-width="4" stroke-linecap="round" fill="none"/>
<rect x="637" y="447" width="177" height="116" rx="26" ry="52" fill="white" stroke="#161616" stroke-width="4" transform="rotate(-9 725.5 505.0)"/>
<circle cx="707.5" cy="494.68" r="5" fill="#161616"/>
<circle cx="743.5" cy="494.68" r="5" fill="#161616"/>
<path d="M 699.5 520.6800000000001 Q 725.5 540.6800000000001 751.5 520.6800000000001" stroke="#161616" stroke-width="4" stroke-linecap="round" fill="none"/>
<path d="M 687.5 462.68 Q 725.5 424.68 761.5 462.68" stroke="#161616" stroke-width="4" stroke-linecap="round" fill="none"/>
<rect x="346" y="696" width="80" height="122" rx="27" ry="60" fill="white" stroke="#161616" stroke-width="4" transform="rotate(1 386.0 757.0)"/>
<circle cx="368.0" cy="746.56" r="5" fill="#161616"/>
<circle cx="404.0" cy="746.56" r="5" fill="#161616"/>
<path d="M 360.0 772.56 Q 386.0 792.56 412.0 772.56" stroke="#161616" stroke-width="4" stroke-linecap="round" fill="none"/>
<path d="M 348.0 714.56 Q 386.0 676.56 422.0 714.56" stroke="#161616" stroke-width="4" stroke-linecap="round" fill="none"/>
<text x="86" y="1125" font-family="Comic Sans MS, Bradley Hand, Segoe Print, sans-serif" font-size="30" fill="#404040">Sample product image 2 of 4</text>
<path d="M900 1090 C 970 1038, 1018 1156, 1114 1088" stroke="#161616" stroke-width="4" fill="none" stroke-linecap="round"/>
</svg>