<svg xmlns="http://www.w3.org/2000/svg" width="1200" height="1200" viewBox="0 0 1200 1200" fill="none">
  <rect width="1200" height="1200" fill="#e9f6ff"/>
  <rect x="42" y="42" width="1116" height="1116" rx="16" stroke="#161616" stroke-width="4"/>
  <path d="M74 110 C 210 72, 420 84, 520 112" stroke="#161616" stroke-width="4" stroke-linecap="round"/>
  <path d="M900 108 C 960 90, 1080 84, 1120 114" stroke="#161616" stroke-width="4" stroke-linecap="round"/>
  <text x="88" y="110" font-family="Comic Sans MS, Bradley Hand, Segoe Print, sans-serif" font-size="34" fill="#161616">Snoodle Doodles HQ</text>
  <text x="86" y="180" font-family="Comic Sans MS, Bradley Hand, Segoe Print, sans-serif" font-size="88" fill="#161616">Sleepy Ghost</text>
  <text x="86" y="255" font-family="Comic Sans MS, Bradley Hand, Segoe Print, sans-serif" font-size="66" fill="#161616">sticker pack</text>
  <text x="84" y="315" font-family="Comic Sans MS, Bradley Hand, Segoe Print, sans-serif" font-size="34" fill="#404040">Pack spread</text>

<circle cx="664" cy="281" r="66" stroke="#161616" stroke-width="4" opacity="0.9"/>
<circle cx="318" cy="393" r="56" stroke="#161616" stroke-width="4" opacity="0.9"/>
<circle cx="747" cy="655" r="84" stroke="#161616" stroke-width="4" opacity="0.9"/>
<circle cx="620" cy="300" r="67" stroke="#161616" stroke-width="4" opacity="0.9"/>
<circle cx="711" cy="625" r="46" stroke="#161616" stroke-width="4" opacity="0.9"/>
<rect x="120" y="360" width="960" height="690" rx="20" fill="#fffdf8" stroke="#161616" stroke-width="4"/>
<rect x="843" y="732" width="126" height="116" rx="45" ry="60" fill="white" stroke="#161616" stroke-width="4" transform="rotate(-3 906.0 790.0)"/>
<circle cx="888.0" cy="779.68" r="5" fill="#161616"/>
<circle cx="924.0" cy="779.68" r="5" fill="#161616"/>
<path d="M 880.0 805.68 Q 906.0 825.68 932.0 805.68" stroke="#161616" stroke-width="4" stroke-linecap="round" fill="none"/>
<path d="M 868.0 747.68 Q 906.0 709.68 942.0 747.68" stroke="#161616" stroke-width="4" stroke-linecap="round" fill="none"/>
<rect x="829" y="312" width="108" height="132" rx="32" ry="28" fill="white" stroke="#161616" stroke-width="4" transform="rotate(0 883.0 378.0)"/>
<circle cx="865.0" cy="367.36" r="5" fill="#161616"/>
<circle cx="901.0" cy="367.36" r="5" fill="#161616"/>
<path d="M 857.0 393.36 Q 883.0 413.36 909.0 393.36" stroke="#161616" stroke-width="4" stroke-linecap="round" fill="none"/>
<path d="M 845.0 335.36 Q 883.0 297.36 919.0 335.36" stroke="#161616" stroke-width="4" stroke-linecap="round" fill="none"/>
<rect x="456" y="748" width="76" height="175" rx="43" ry="38" fill="white" stroke="#161616" stroke-width="4" transform="rotate(-8 494.0 835.5)"/>
<circle cx="476.0" cy="824.0" r="5" fill="#161616"/>
<circle cx="512.0" cy="824.0" r="5" fill="#161616"/>
<path d="M 468.0 850.0 Q 494.0 870.0 520.0 850.0" stroke="#161616" stroke-width="4" stroke-linecap="round" fill="none"/>
<path d="M 456.0 792.0 Q 494.0 754.0 530.0 792.0" stroke="#161616" stroke-width="4" stroke-linecap="round" fill="none"/>
<rect x="762" y="676" width="174" height="115" rx="48" ry="32" fill="white" stroke="#161616" stroke-width="4" transform="rotate(10 849.0 733.5)"/>
<circle cx="831.0" cy="723.2" r="5" fill="#161616"/>
<circle cx="867.0" cy="723.2" r="5" fill="#161616"/>
<path d="M 823.0 749.2 Q 849.0 769.2 875.0 749.2" stroke="#161616" stroke-width="4" stroke-linecap="round" fill="none"/>
<path d="M 811.0 691.2 Q 849.0 653.2 885.0 691.2" stroke="#161616" stroke-width="4" stroke-linecap="round" fill="none"/>
<text x="86" y="1125" font-family="Comic Sans MS, Bradley Hand, Segoe Print, sans-serif" font-size="30" fill="#404040">Sample product image 3 of 4</text>
<path d="M900 1090 C 970 1038, 1018 1156, 1114 1088" stroke="#161616" stroke-width="4" fill="none" stroke-linecap="round"/>
</svg>