<svg xmlns="http://www.w3.org/2000/svg" width="1200" height="1200" viewBox="0 0 1200 1200" fill="none">
  <rect width="1200" height="1200" fill="#e9f6ff"/>
  <rect x="42" y="42" width="1116" height="1116" rx="16" stroke="#161616" stroke-width="4"/>
  <path d="M74 110 C 210 72, 420 84, 520 112" stroke="#161616" stroke-width="4" stroke-linecap="round"/>
  <path d="M900 108 C 960 90, 1080 84, 1120 114" stroke="#161616" stroke-width="4" stroke-linecap="round"/>
  <text x="88" y="110" font-family="Comic Sans MS, Bradley Hand, Segoe Print, sans-serif" font-size="34" fill="#161616">Snoodle Doodles HQ</text>
  <text x="86" y="180" font-family="Comic Sans MS, Bradley Hand, Segoe Print, sans-serif" font-size="88" fill="#161616">Sleepy Ghost</text>
  <text x="86" y="255" font-family="Comic Sans MS, Bradley Hand, Segoe Print, sans-serif" font-size="66" fill="#161616">sticker pack</text>
  <text x="84" y="315" font-family="Comic Sans MS, Bradley Hand, Segoe Print, sans-serif" font-size="34" fill="#404040">Sticker detail</text>

<circle cx="621" cy="475" r="63" stroke="#161616" stroke-width="4" opacity="0.9"/>
<circle cx="108" cy="344" r="83" stroke="#161616" stroke-width="4" opacity="0.9"/>
<circle cx="110" cy="508" r="49" stroke="#161616" stroke-width="4" opacity="0.9"/>
<circle cx="146" cy="544" r="45" stroke="#161616" stroke-width="4" opacity="0.9"/>
<circle cx="429" cy="206" r="63" stroke="#161616" stroke-width="4" opacity="0.9"/>
<rect x="120" y="360" width="960" height="690" rx="20" fill="#fffdf8" stroke="#161616" stroke-width="4"/>
<rect x="663" y="398" width="82" height="115" rx="28" ry="49" fill="white" stroke="#161616" stroke-width="4" transform="rotate(-5 704.0 455.5)"/>
<circle cx="686.0" cy="445.2" r="5" fill="#161616"/>
<circle cx="722.0" cy="445.2" r="5" fill="#161616"/>
<path d="M 678.0 471.2 Q 704.0 491.2 730.0 471.2" stroke="#161616" stroke-width="4" stroke-linecap="round" fill="none"/>
<path d="M 666.0 413.2 Q 704.0 375.2 740.0 413.2" stroke="#161616" stroke-width="4" stroke-linecap="round" fill="none"/>
<rect x="495" y="241" width="169" height="99" rx="44" ry="43" fill="white" stroke="#161616" stroke-width="4" transform="rotate(2 579.5 290.5)"/>
<circle cx="561.5" cy="280.52" r="5" fill="#161616"/>
<circle cx="597.5" cy="280.52" r="5" fill="#161616"/>
<path d="M 553.5 306.52 Q 579.5 326.52 605.5 306.52" stroke="#161616" stroke-width="4" stroke-linecap="round" fill="none"/>
<path d="M 541.5 248.51999999999998 Q 579.5 210.51999999999998 615.5 248.51999999999998" stroke="#161616" stroke-width="4" stroke-linecap="round" fill="none"/>
<rect x="676" y="328" width="172" height="87" rx="45" ry="38" fill="white" stroke="#161616" stroke-width="4" transform="rotate(-4 762.0 371.5)"/>
<circle cx="744.0" cy="361.76" r="5" fill="#161616"/>
<circle cx="780.0" cy="361.76" r="5" fill="#161616"/>
<path d="M 736.0 387.76 Q 762.0 407.76 788.0 387.76" stroke="#161616" stroke-width="4" stroke-linecap="round" fill="none"/>
<path d="M 724.0 329.76 Q 762.0 291.76 798.0 329.76" stroke="#161616" stroke-width="4" stroke-linecap="round" fill="none"/>
<rect x="518" y="501" width="164" height="150" rx="53" ry="59" fill="white" stroke="#161616" stroke-width="4" transform="rotate(-5 600.0 576.0)"/>
<circle cx="582.0" cy="565.0" r="5" fill="#161616"/>
<circle cx="618.0" cy="565.0" r="5" fill="#161616"/>
<path d="M 574.0 591.0 Q 600.0 611.0 626.0 591.0" stroke="#161616" stroke-width="4" stroke-linecap="round" fill="none"/>
<path d="M 562.0 533.0 Q 600.0 495.0 636.0 533.0" stroke="#161616" stroke-width="4" stroke-linecap="round" fill="none"/>
<text x="86" y="1125" font-family="Comic Sans MS, Bradley Hand, Segoe Print, sans-serif" font-size="30" fill="#404040">Sample product image 4 of 4</text>
<path d="M900 1090 C 970 1038, 1018 1156, 1114 1088" stroke="#161616" stroke-width="4" fill="none" stroke-linecap="round"/>
</svg>