<svg xmlns="http://www.w3.org/2000/svg" width="1200" height="1200" viewBox="0 0 1200 1200" fill="none">
  <rect width="1200" height="1200" fill="#fff0e4"/>
  <rect x="42" y="42" width="1116" height="1116" rx="16" stroke="#161616" stroke-width="4"/>
  <path d="M74 110 C 210 72, 420 84, 520 112" stroke="#161616" stroke-width="4" stroke-linecap="round"/>
  <path d="M900 108 C 960 90, 1080 84, 1120 114" stroke="#161616" stroke-width="4" stroke-linecap="round"/>
  <text x="88" y="110" font-family="Comic Sans MS, Bradley Hand, Segoe Print, sans-serif" font-size="34" fill="#161616">Snoodle Doodles HQ</text>
  <text x="86" y="180" font-family="Comic Sans MS, Bradley Hand, Segoe Print, sans-serif" font-size="88" fill="#161616">Keyboard Goblin</text>
  <text x="86" y="255" font-family="Comic Sans MS, Bradley Hand, Segoe Print, sans-serif" font-size="66" fill="#161616">sticker pack</text>
  <text x="84" y="315" font-family="Comic Sans MS, Bradley Hand, Segoe Print, sans-serif" font-size="34" fill="#404040">Sheet view</text>

<circle cx="675" cy="309" r="84" stroke="#161616" stroke-width="4" opacity="0.9"/>
<circle cx="632" cy="477" r="55" stroke="#161616" stroke-width="4" opacity="0.9"/>
<circle cx="129" cy="789" r="58" stroke="#161616" stroke-width="4" opacity="0.9"/>
<circle cx="299" cy="726" r="40" stroke="#161616" stroke-width="4" opacity="0.9"/>
<circle cx="375" cy="607" r="70" stroke="#161616" stroke-width="4" opacity="0.9"/>
<rect x="120" y="360" width="960" height="690" rx="20" fill="#fffdf8" stroke="#161616" stroke-width="4"/>
<rect x="357" y="576" width="126" height="89" rx="52" ry="38" fill="white" stroke="#161616" stroke-width="4" transform="rotate(-8 420.0 620.5)"/>
<circle cx="402.0" cy="610.72" r="5" fill="#161616"/>
<circle cx="438.0" cy="610.72" r="5" fill="#161616"/>
<path d="M 394.0 636.72 Q 420.0 656.72 446.0 636.72" stroke="#161616" stroke-width="4" stroke-linecap="round" fill="none"/>
<path d="M 382.0 578.72 Q 420.0 540.72 456.0 578.72" stroke="#161616" stroke-width="4" stroke-linecap="round" fill="none"/>
<rect x="401" y="437" width="90" height="91" rx="52" ry="54" fill="white" stroke="#161616" stroke-width="4" transform="rotate(-1 446.0 482.5)"/>
<circle cx="428.0" cy="472.68" r="5" fill="#161616"/>
<circle cx="464.0" cy="472.68" r="5" fill="#161616"/>
<path d="M 420.0 498.68 Q 446.0 518.6800000000001 472.0 498.68" stroke="#161616" stroke-width="4" stroke-linecap="round" fill="none"/>
<path d="M 408.0 440.68 Q 446.0 402.68 482.0 440.68" stroke="#161616" stroke-width="4" stroke-linecap="round" fill="none"/>
<rect x="595" y="615" width="94" height="140" rx="38" ry="32" fill="white" stroke="#161616" stroke-width="4" transform="rotate(10 642.0 685.0)"/>
<circle cx="624.0" cy="674.2" r="5" fill="#161616"/>
<circle cx="660.0" cy="674.2" r="5" fill="#161616"/>
<path d="M 616.0 700.2 Q 642.0 720.2 668.0 700.2" stroke="#161616" stroke-width="4" stroke-linecap="round" fill="none"/>
<path d="M 604.0 642.2 Q 642.0 604.2 678.0 642.2" stroke="#161616" stroke-width="4" stroke-linecap="round" fill="none"/>
<rect x="473" y="484" width="151" height="131" rx="46" ry="42" fill="white" stroke="#161616" stroke-width="4" transform="rotate(2 548.5 549.5)"/>
<circle cx="530.5" cy="538.88" r="5" fill="#161616"/>
<circle cx="566.5" cy="538.88" r="5" fill="#161616"/>
<path d="M 522.5 564.88 Q 548.5 584.88 574.5 564.88" stroke="#161616" stroke-width="4" stroke-linecap="round" fill="none"/>
<path d="M 510.5 506.88 Q 548.5 468.88 584.5 506.88" stroke="#161616" stroke-width="4" stroke-linecap="round" fill="none"/>
<text x="86" y="1125" font-family="Comic Sans MS, Bradley Hand, Segoe Print, sans-serif" font-size="30" fill="#404040">Sample product image 1 of 4</text>
<path d="M900 1090 C 970 1038, 1018 1156, 1114 1088" stroke="#161616" stroke-width="4" fill="none" stroke-linecap="round"/>
</svg>