<svg xmlns="http://www.w3.org/2000/svg" width="1200" height="1200" viewBox="0 0 1200 1200" fill="none">
  <rect width="1200" height="1200" fill="#fff0e4"/>
  <rect x="42" y="42" width="1116" height="1116" rx="16" stroke="#161616" stroke-width="4"/>
  <path d="M74 110 C 210 72, 420 84, 520 112" stroke="#161616" stroke-width="4" stroke-linecap="round"/>
  <path d="M900 108 C 960 90, 1080 84, 1120 114" stroke="#161616" stroke-width="4" stroke-linecap="round"/>
  <text x="88" y="110" font-family="Comic Sans MS, Bradley Hand, Segoe Print, sans-serif" font-size="34" fill="#161616">Snoodle Doodles HQ</text>
  <text x="86" y="180" font-family="Comic Sans MS, Bradley Hand, Segoe Print, sans-serif" font-size="88" fill="#161616">Keyboard Goblin</text>
  <text x="86" y="255" font-family="Comic Sans MS, Bradley Hand, Segoe Print, sans-serif" font-size="66" fill="#161616">sticker pack</text>
  <text x="84" y="315" font-family="Comic Sans MS, Bradley Hand, Segoe Print, sans-serif" font-size="34" fill="#404040">Close-up</text>

<circle cx="231" cy="802" r="65" stroke="#161616" stroke-width="4" opacity="0.9"/>
<circle cx="446" cy="283" r="61" stroke="#161616" stroke-width="4" opacity="0.9"/>
<circle cx="809" cy="786" r="64" stroke="#161616" stroke-width="4" opacity="0.9"/>
<circle cx="266" cy="503" r="44" stroke="#161616" stroke-width="4" opacity="0.9"/>
<circle cx="712" cy="549" r="62" stroke="#161616" stroke-width="4" opacity="0.9"/>
<rect x="120" y="360" width="960" height="690" rx="20" fill="#fffdf8" stroke="#161616" stroke-width="4"/>
<rect x="735" y="284" width="162" height="147" rx="53" ry="57" fill="white" stroke="#161616" stroke-width="4" transform="rotate(-3 816.0 357.5)"/>
<circle cx="798.0" cy="346.56" r="5" fill="#161616"/>
<circle cx="834.0" cy="346.56" r="5" fill="#161616"/>
<path d="M 790.0 372.56 Q 816.0 392.56 842.0 372.56" stroke="#161616" stroke-width="4" stroke-linecap="round" fill="none"/>
<path d="M 778.0 314.56 Q 816.0 276.56 852.0 314.56" stroke="#161616" stroke-width="4" stroke-linecap="round" fill="none"/>
<rect x="696" y="429" width="164" height="128" rx="58" ry="58" fill="white" stroke="#161616" stroke-width="4" transform="rotate(-6 778.0 493.0)"/>
<circle cx="760.0" cy="482.44" r="5" fill="#161616"/>
<circle cx="796.0" cy="482.44" r="5" fill="#161616"/>
<path d="M 752.0 508.44 Q 778.0 528.44 804.0 508.44" stroke="#161616" stroke-width="4" stroke-linecap="round" fill="none"/>
<path d="M 740.0 450.44 Q 778.0 412.44 814.0 450.44" stroke="#161616" stroke-width="4" stroke-linecap="round" fill="none"/>
<rect x="592" y="472" width="135" height="96" rx="56" ry="51" fill="white" stroke="#161616" stroke-width="4" transform="rotate(10 659.5 520.0)"/>
<circle cx="641.5" cy="510.08000000000004" r="5" fill="#161616"/>
<circle cx="677.5" cy="510.08000000000004" r="5" fill="#161616"/>
<path d="M 633.5 536.08 Q 659.5 556.08 685.5 536.08" stroke="#161616" stroke-width="4" stroke-linecap="round" fill="none"/>
<path d="M 621.5 478.08000000000004 Q 659.5 440.08000000000004 695.5 478.08000000000004" stroke="#161616" stroke-width="4" stroke-linecap="round" fill="none"/>
<rect x="226" y="294" width="158" height="103" rx="55" ry="29" fill="white" stroke="#161616" stroke-width="4" transform="rotate(-3 305.0 345.5)"/>
<circle cx="287.0" cy="335.44" r="5" fill="#161616"/>
<circle cx="323.0" cy="335.44" r="5" fill="#161616"/>
<path d="M 279.0 361.44 Q 305.0 381.44 331.0 361.44" stroke="#161616" stroke-width="4" stroke-linecap="round" fill="none"/>
<path d="M 267.0 303.44 Q 305.0 265.44 341.0 303.44" stroke="#161616" stroke-width="4" stroke-linecap="round" fill="none"/>
<text x="86" y="1125" font-family="Comic Sans MS, Bradley Hand, Segoe Print, sans-serif" font-size="30" fill="#404040">Sample product image 2 of 4</text>
<path d="M900 1090 C 970 1038, 1018 1156, 1114 1088" stroke="#161616" stroke-width="4" fill="none" stroke-linecap="round"/>
</svg>