<svg xmlns="http://www.w3.org/2000/svg" width="1200" height="1200" viewBox="0 0 1200 1200" fill="none">
  <rect width="1200" height="1200" fill="#fff0e4"/>
  <rect x="42" y="42" width="1116" height="1116" rx="16" stroke="#161616" stroke-width="4"/>
  <path d="M74 110 C 210 72, 420 84, 520 112" stroke="#161616" stroke-width="4" stroke-linecap="round"/>
  <path d="M900 108 C 960 90, 1080 84, 1120 114" stroke="#161616" stroke-width="4" stroke-linecap="round"/>
  <text x="88" y="110" font-family="Comic Sans MS, Bradley Hand, Segoe Print, sans-serif" font-size="34" fill="#161616">Snoodle Doodles HQ</text>
  <text x="86" y="180" font-family="Comic Sans MS, Bradley Hand, Segoe Print, sans-serif" font-size="88" fill="#161616">Keyboard Goblin</text>
  <text x="86" y="255" font-family="Comic Sans MS, Bradley Hand, Segoe Print, sans-serif" font-size="66" fill="#161616">sticker pack</text>
  <text x="84" y="315" font-family="Comic Sans MS, Bradley Hand, Segoe Print, sans-serif" font-size="34" fill="#404040">Sticker detail</text>

<circle cx="100" cy="312" r="72" stroke="#161616" stroke-width="4" opacity="0.9"/>
<circle cx="869" cy="343" r="51" stroke="#161616" stroke-width="4" opacity="0.9"/>
<circle cx="418" cy="116" r="71" stroke="#161616" stroke-width="4" opacity="0.9"/>
<circle cx="208" cy="127" r="84" stroke="#161616" stroke-width="4" opacity="0.9"/>
<circle cx="250" cy="217" r="83" stroke="#161616" stroke-width="4" opacity="0.9"/>
<rect x="120" y="360" width="960" height="690" rx="20" fill="#fffdf8" stroke="#161616" stroke-width="4"/>
<rect x="290" y="360" width="79" height="163" rx="51" ry="27" fill="white" stroke="#161616" stroke-width="4" transform="rotate(4 329.5 441.5)"/>
<circle cx="311.5" cy="430.24" r="5" fill="#161616"/>
<circle cx="347.5" cy="430.24" r="5" fill="#161616"/>
<path d="M 303.5 456.24 Q 329.5 476.24 355.5 456.24" stroke="#161616" stroke-width="4" stroke-linecap="round" fill="none"/>
<path d="M 291.5 398.24 Q 329.5 360.24 365.5 398.24" stroke="#161616" stroke-width="4" stroke-linecap="round" fill="none"/>
<rect x="477" y="617" width="152" height="87" rx="53" ry="59" fill="white" stroke="#161616" stroke-width="4" transform="rotate(-3 553.0 660.5)"/>
<circle cx="535.0" cy="650.76" r="5" fill="#161616"/>
<circle cx="571.0" cy="650.76" r="5" fill="#161616"/>
<path d="M 527.0 676.76 Q 553.0 696.76 579.0 676.76" stroke="#161616" stroke-width="4" stroke-linecap="round" fill="none"/>
<path d="M 515.0 618.76 Q 553.0 580.76 589.0 618.76" stroke="#161616" stroke-width="4" stroke-linecap="round" fill="none"/>
<rect x="347" y="503" width="120" height="121" rx="41" ry="36" fill="white" stroke="#161616" stroke-width="4" transform="rotate(8 407.0 563.5)"/>
<circle cx="389.0" cy="553.08" r="5" fill="#161616"/>
<circle cx="425.0" cy="553.08" r="5" fill="#161616"/>
<path d="M 381.0 579.08 Q 407.0 599.08 433.0 579.08" stroke="#161616" stroke-width="4" stroke-linecap="round" fill="none"/>
<path d="M 369.0 521.08 Q 407.0 483.08000000000004 443.0 521.08" stroke="#161616" stroke-width="4" stroke-linecap="round" fill="none"/>
<rect x="776" y="415" width="150" height="118" rx="27" ry="31" fill="white" stroke="#161616" stroke-width="4" transform="rotate(-9 851.0 474.0)"/>
<circle cx="833.0" cy="463.64" r="5" fill="#161616"/>
<circle cx="869.0" cy="463.64" r="5" fill="#161616"/>
<path d="M 825.0 489.64 Q 851.0 509.64 877.0 489.64" stroke="#161616" stroke-width="4" stroke-linecap="round" fill="none"/>
<path d="M 813.0 431.64 Q 851.0 393.64 887.0 431.64" stroke="#161616" stroke-width="4" stroke-linecap="round" fill="none"/>
<text x="86" y="1125" font-family="Comic Sans MS, Bradley Hand, Segoe Print, sans-serif" font-size="30" fill="#404040">Sample product image 4 of 4</text>
<path d="M900 1090 C 970 1038, 1018 1156, 1114 1088" stroke="#161616" stroke-width="4" fill="none" stroke-linecap="round"/>
</svg>