<svg xmlns="http://www.w3.org/2000/svg" width="1200" height="1200" viewBox="0 0 1200 1200" fill="none">
  <rect width="1200" height="1200" fill="#f7eefc"/>
  <rect x="42" y="42" width="1116" height="1116" rx="16" stroke="#161616" stroke-width="4"/>
  <path d="M74 110 C 210 72, 420 84, 520 112" stroke="#161616" stroke-width="4" stroke-linecap="round"/>
  <path d="M900 108 C 960 90, 1080 84, 1120 114" stroke="#161616" stroke-width="4" stroke-linecap="round"/>
  <text x="88" y="110" font-family="Comic Sans MS, Bradley Hand, Segoe Print, sans-serif" font-size="34" fill="#161616">Snoodle Doodles HQ</text>
  <text x="86" y="180" font-family="Comic Sans MS, Bradley Hand, Segoe Print, sans-serif" font-size="88" fill="#161616">Cat Mood</text>
  <text x="86" y="255" font-family="Comic Sans MS, Bradley Hand, Segoe Print, sans-serif" font-size="66" fill="#161616">sticker pack</text>
  <text x="84" y="315" font-family="Comic Sans MS, Bradley Hand, Segoe Print, sans-serif" font-size="34" fill="#404040">Sheet view</text>

<circle cx="411" cy="630" r="65" stroke="#161616" stroke-width="4" opacity="0.9"/>
<circle cx="897" cy="118" r="42" stroke="#161616" stroke-width="4" opacity="0.9"/>
<circle cx="238" cy="884" r="38" stroke="#161616" stroke-width="4" opacity="0.9"/>
<circle cx="349" cy="198" r="38" stroke="#161616" stroke-width="4" opacity="0.9"/>
<circle cx="604" cy="166" r="64" stroke="#161616" stroke-width="4" opacity="0.9"/>
<rect x="120" y="360" width="960" height="690" rx="20" fill="#fffdf8" stroke="#161616" stroke-width="4"/>
<rect x="338" y="756" width="73" height="168" rx="49" ry="37" fill="white" stroke="#161616" stroke-width="4" transform="rotate(-6 374.5 840.0)"/>
<circle cx="356.5" cy="828.64" r="5" fill="#161616"/>
<circle cx="392.5" cy="828.64" r="5" fill="#161616"/>
<path d="M 348.5 854.64 Q 374.5 874.64 400.5 854.64" stroke="#161616" stroke-width="4" stroke-linecap="round" fill="none"/>
<path d="M 336.5 796.64 Q 374.5 758.64 410.5 796.64" stroke="#161616" stroke-width="4" stroke-linecap="round" fill="none"/>
<rect x="679" y="614" width="174" height="138" rx="45" ry="52" fill="white" stroke="#161616" stroke-width="4" transform="rotate(4 766.0 683.0)"/>
<circle cx="748.0" cy="672.24" r="5" fill="#161616"/>
<circle cx="784.0" cy="672.24" r="5" fill="#161616"/>
<path d="M 740.0 698.24 Q 766.0 718.24 792.0 698.24" stroke="#161616" stroke-width="4" stroke-linecap="round" fill="none"/>
<path d="M 728.0 640.24 Q 766.0 602.24 802.0 640.24" stroke="#161616" stroke-width="4" stroke-linecap="round" fill="none"/>
<rect x="273" y="597" width="152" height="101" rx="31" ry="26" fill="white" stroke="#161616" stroke-width="4" transform="rotate(-3 349.0 647.5)"/>
<circle cx="331.0" cy="637.48" r="5" fill="#161616"/>
<circle cx="367.0" cy="637.48" r="5" fill="#161616"/>
<path d="M 323.0 663.48 Q 349.0 683.48 375.0 663.48" stroke="#161616" stroke-width="4" stroke-linecap="round" fill="none"/>
<path d="M 311.0 605.48 Q 349.0 567.48 385.0 605.48" stroke="#161616" stroke-width="4" stroke-linecap="round" fill="none"/>
<rect x="177" y="596" width="147" height="83" rx="34" ry="34" fill="white" stroke="#161616" stroke-width="4" transform="rotate(-3 250.5 637.5)"/>
<circle cx="232.5" cy="627.84" r="5" fill="#161616"/>
<circle cx="268.5" cy="627.84" r="5" fill="#161616"/>
<path d="M 224.5 653.84 Q 250.5 673.84 276.5 653.84" stroke="#161616" stroke-width="4" stroke-linecap="round" fill="none"/>
<path d="M 212.5 595.84 Q 250.5 557.84 286.5 595.84" stroke="#161616" stroke-width="4" stroke-linecap="round" fill="none"/>
<text x="86" y="1125" font-family="Comic Sans MS, Bradley Hand, Segoe Print, sans-serif" font-size="30" fill="#404040">Sample product image 1 of 4</text>
<path d="M900 1090 C 970 1038, 1018 1156, 1114 1088" stroke="#161616" stroke-width="4" fill="none" stroke-linecap="round"/>
</svg>