<svg xmlns="http://www.w3.org/2000/svg" width="1200" height="1200" viewBox="0 0 1200 1200" fill="none">
  <rect width="1200" height="1200" fill="#f7eefc"/>
  <rect x="42" y="42" width="1116" height="1116" rx="16" stroke="#161616" stroke-width="4"/>
  <path d="M74 110 C 210 72, 420 84, 520 112" stroke="#161616" stroke-width="4" stroke-linecap="round"/>
  <path d="M900 108 C 960 90, 1080 84, 1120 114" stroke="#161616" stroke-width="4" stroke-linecap="round"/>
  <text x="88" y="110" font-family="Comic Sans MS, Bradley Hand, Segoe Print, sans-serif" font-size="34" fill="#161616">Snoodle Doodles HQ</text>
  <text x="86" y="180" font-family="Comic Sans MS, Bradley Hand, Segoe Print, sans-serif" font-size="88" fill="#161616">Cat Mood</text>
  <text x="86" y="255" font-family="Comic Sans MS, Bradley Hand, Segoe Print, sans-serif" font-size="66" fill="#161616">sticker pack</text>
  <text x="84" y="315" font-family="Comic Sans MS, Bradley Hand, Segoe Print, sans-serif" font-size="34" fill="#404040">Close-up</text>

<circle cx="155" cy="718" r="73" stroke="#161616" stroke-width="4" opacity="0.9"/>
<circle cx="270" cy="462" r="70" stroke="#161616" stroke-width="4" opacity="0.9"/>
<circle cx="637" cy="744" r="49" stroke="#161616" stroke-width="4" opacity="0.9"/>
<circle cx="394" cy="867" r="71" stroke="#161616" stroke-width="4" opacity="0.9"/>
<circle cx="781" cy="723" r="34" stroke="#161616" stroke-width="4" opacity="0.9"/>
<rect x="120" y="360" width="960" height="690" rx="20" fill="#fffdf8" stroke="#161616" stroke-width="4"/>
<rect x="491" y="478" width="118" height="98" rx="26" ry="51" fill="white" stroke="#161616" stroke-width="4" transform="rotate(-2 550.0 527.0)"/>
<circle cx="532.0" cy="517.04" r="5" fill="#161616"/>
<circle cx="568.0" cy="517.04" r="5" fill="#161616"/>
<path d="M 524.0 543.04 Q 550.0 563.04 576.0 543.04" stroke="#161616" stroke-width="4" stroke-linecap="round" fill="none"/>
<path d="M 512.0 485.03999999999996 Q 550.0 447.03999999999996 586.0 485.03999999999996" stroke="#161616" stroke-width="4" stroke-linecap="round" fill="none"/>
<rect x="788" y="267" width="158" height="108" rx="42" ry="47" fill="white" stroke="#161616" stroke-width="4" transform="rotate(1 867.0 321.0)"/>
<circle cx="849.0" cy="310.84" r="5" fill="#161616"/>
<circle cx="885.0" cy="310.84" r="5" fill="#161616"/>
<path d="M 841.0 336.84 Q 867.0 356.84 893.0 336.84" stroke="#161616" stroke-width="4" stroke-linecap="round" fill="none"/>
<path d="M 829.0 278.84 Q 867.0 240.83999999999997 903.0 278.84" stroke="#161616" stroke-width="4" stroke-linecap="round" fill="none"/>
<rect x="606" y="253" width="127" height="88" rx="39" ry="48" fill="white" stroke="#161616" stroke-width="4" transform="rotate(5 669.5 297.0)"/>
<circle cx="651.5" cy="287.24" r="5" fill="#161616"/>
<circle cx="687.5" cy="287.24" r="5" fill="#161616"/>
<path d="M 643.5 313.24 Q 669.5 333.24 695.5 313.24" stroke="#161616" stroke-width="4" stroke-linecap="round" fill="none"/>
<path d="M 631.5 255.24 Q 669.5 217.24 705.5 255.24" stroke="#161616" stroke-width="4" stroke-linecap="round" fill="none"/>
<rect x="442" y="333" width="134" height="120" rx="40" ry="47" fill="white" stroke="#161616" stroke-width="4" transform="rotate(8 509.0 393.0)"/>
<circle cx="491.0" cy="382.6" r="5" fill="#161616"/>
<circle cx="527.0" cy="382.6" r="5" fill="#161616"/>
<path d="M 483.0 408.6 Q 509.0 428.6 535.0 408.6" stroke="#161616" stroke-width="4" stroke-linecap="round" fill="none"/>
<path d="M 471.0 350.6 Q 509.0 312.6 545.0 350.6" stroke="#161616" stroke-width="4" stroke-linecap="round" fill="none"/>
<text x="86" y="1125" font-family="Comic Sans MS, Bradley Hand, Segoe Print, sans-serif" font-size="30" fill="#404040">Sample product image 2 of 4</text>
<path d="M900 1090 C 970 1038, 1018 1156, 1114 1088" stroke="#161616" stroke-width="4" fill="none" stroke-linecap="round"/>
</svg>