<svg xmlns="http://www.w3.org/2000/svg" width="1200" height="1200" viewBox="0 0 1200 1200" fill="none">
  <rect width="1200" height="1200" fill="#f7eefc"/>
  <rect x="42" y="42" width="1116" height="1116" rx="16" stroke="#161616" stroke-width="4"/>
  <path d="M74 110 C 210 72, 420 84, 520 112" stroke="#161616" stroke-width="4" stroke-linecap="round"/>
  <path d="M900 108 C 960 90, 1080 84, 1120 114" stroke="#161616" stroke-width="4" stroke-linecap="round"/>
  <text x="88" y="110" font-family="Comic Sans MS, Bradley Hand, Segoe Print, sans-serif" font-size="34" fill="#161616">Snoodle Doodles HQ</text>
  <text x="86" y="180" font-family="Comic Sans MS, Bradley Hand, Segoe Print, sans-serif" font-size="88" fill="#161616">Cat Mood</text>
  <text x="86" y="255" font-family="Comic Sans MS, Bradley Hand, Segoe Print, sans-serif" font-size="66" fill="#161616">sticker pack</text>
  <text x="84" y="315" font-family="Comic Sans MS, Bradley Hand, Segoe Print, sans-serif" font-size="34" fill="#404040">Pack spread</text>

<circle cx="366" cy="235" r="58" stroke="#161616" stroke-width="4" opacity="0.9"/>
<circle cx="571" cy="687" r="37" stroke="#161616" stroke-width="4" opacity="0.9"/>
<circle cx="552" cy="414" r="63" stroke="#161616" stroke-width="4" opacity="0.9"/>
<circle cx="155" cy="608" r="51" stroke="#161616" stroke-width="4" opacity="0.9"/>
<circle cx="610" cy="622" r="38" stroke="#161616" stroke-width="4" opacity="0.9"/>
<rect x="120" y="360" width="960" height="690" rx="20" fill="#fffdf8" stroke="#161616" stroke-width="4"/>
<rect x="601" y="353" width="72" height="112" rx="41" ry="37" fill="white" stroke="#161616" stroke-width="4" transform="rotate(-8 637.0 409.0)"/>
<circle cx="619.0" cy="398.76" r="5" fill="#161616"/>
<circle cx="655.0" cy="398.76" r="5" fill="#161616"/>
<path d="M 611.0 424.76 Q 637.0 444.76 663.0 424.76" stroke="#161616" stroke-width="4" stroke-linecap="round" fill="none"/>
<path d="M 599.0 366.76 Q 637.0 328.76 673.0 366.76" stroke="#161616" stroke-width="4" stroke-linecap="round" fill="none"/>
<rect x="561" y="266" width="123" height="125" rx="54" ry="47" fill="white" stroke="#161616" stroke-width="4" transform="rotate(-1 622.5 328.5)"/>
<circle cx="604.5" cy="318.0" r="5" fill="#161616"/>
<circle cx="640.5" cy="318.0" r="5" fill="#161616"/>
<path d="M 596.5 344.0 Q 622.5 364.0 648.5 344.0" stroke="#161616" stroke-width="4" stroke-linecap="round" fill="none"/>
<path d="M 584.5 286.0 Q 622.5 248.0 658.5 286.0" stroke="#161616" stroke-width="4" stroke-linecap="round" fill="none"/>
<rect x="711" y="672" width="133" height="150" rx="33" ry="39" fill="white" stroke="#161616" stroke-width="4" transform="rotate(-10 777.5 747.0)"/>
<circle cx="759.5" cy="736.0" r="5" fill="#161616"/>
<circle cx="795.5" cy="736.0" r="5" fill="#161616"/>
<path d="M 751.5 762.0 Q 777.5 782.0 803.5 762.0" stroke="#161616" stroke-width="4" stroke-linecap="round" fill="none"/>
<path d="M 739.5 704.0 Q 777.5 666.0 813.5 704.0" stroke="#161616" stroke-width="4" stroke-linecap="round" fill="none"/>
<rect x="583" y="424" width="179" height="87" rx="38" ry="42" fill="white" stroke="#161616" stroke-width="4" transform="rotate(-2 672.5 467.5)"/>
<circle cx="654.5" cy="457.76" r="5" fill="#161616"/>
<circle cx="690.5" cy="457.76" r="5" fill="#161616"/>
<path d="M 646.5 483.76 Q 672.5 503.76 698.5 483.76" stroke="#161616" stroke-width="4" stroke-linecap="round" fill="none"/>
<path d="M 634.5 425.76 Q 672.5 387.76 708.5 425.76" stroke="#161616" stroke-width="4" stroke-linecap="round" fill="none"/>
<text x="86" y="1125" font-family="Comic Sans MS, Bradley Hand, Segoe Print, sans-serif" font-size="30" fill="#404040">Sample product image 3 of 4</text>
<path d="M900 1090 C 970 1038, 1018 1156, 1114 1088" stroke="#161616" stroke-width="4" fill="none" stroke-linecap="round"/>
</svg>