<svg xmlns="http://www.w3.org/2000/svg" width="1200" height="1200" viewBox="0 0 1200 1200" fill="none">
  <rect width="1200" height="1200" fill="#ffe8f2"/>
  <rect x="42" y="42" width="1116" height="1116" rx="16" stroke="#161616" stroke-width="4"/>
  <path d="M74 110 C 210 72, 420 84, 520 112" stroke="#161616" stroke-width="4" stroke-linecap="round"/>
  <path d="M900 108 C 960 90, 1080 84, 1120 114" stroke="#161616" stroke-width="4" stroke-linecap="round"/>
  <text x="88" y="110" font-family="Comic Sans MS, Bradley Hand, Segoe Print, sans-serif" font-size="34" fill="#161616">Snoodle Doodles HQ</text>
  <text x="86" y="180" font-family="Comic Sans MS, Bradley Hand, Segoe Print, sans-serif" font-size="88" fill="#161616">Wonky Fruit</text>
  <text x="86" y="255" font-family="Comic Sans MS, Bradley Hand, Segoe Print, sans-serif" font-size="66" fill="#161616">sticker pack</text>
  <text x="84" y="315" font-family="Comic Sans MS, Bradley Hand, Segoe Print, sans-serif" font-size="34" fill="#404040">Pack spread</text>

<circle cx="133" cy="384" r="31" stroke="#161616" stroke-width="4" opacity="0.9"/>
<circle cx="867" cy="527" r="43" stroke="#161616" stroke-width="4" opacity="0.9"/>
<circle cx="190" cy="149" r="50" stroke="#161616" stroke-width="4" opacity="0.9"/>
<circle cx="629" cy="685" r="47" stroke="#161616" stroke-width="4" opacity="0.9"/>
<circle cx="428" cy="163" r="36" stroke="#161616" stroke-width="4" opacity="0.9"/>
<rect x="120" y="360" width="960" height="690" rx="20" fill="#fffdf8" stroke="#161616" stroke-width="4"/>
<rect x="278" y="585" width="141" height="122" rx="30" ry="34" fill="white" stroke="#161616" stroke-width="4" transform="rotate(-6 348.5 646.0)"/>
<circle cx="330.5" cy="635.56" r="5" fill="#161616"/>
<circle cx="366.5" cy="635.56" r="5" fill="#161616"/>
<path d="M 322.5 661.56 Q 348.5 681.56 374.5 661.56" stroke="#161616" stroke-width="4" stroke-linecap="round" fill="none"/>
<path d="M 310.5 603.56 Q 348.5 565.56 384.5 603.56" stroke="#161616" stroke-width="4" stroke-linecap="round" fill="none"/>
<rect x="391" y="407" width="70" height="135" rx="26" ry="43" fill="white" stroke="#161616" stroke-width="4" transform="rotate(3 426.0 474.5)"/>
<circle cx="408.0" cy="463.8" r="5" fill="#161616"/>
<circle cx="444.0" cy="463.8" r="5" fill="#161616"/>
<path d="M 400.0 489.8 Q 426.0 509.8 452.0 489.8" stroke="#161616" stroke-width="4" stroke-linecap="round" fill="none"/>
<path d="M 388.0 431.8 Q 426.0 393.8 462.0 431.8" stroke="#161616" stroke-width="4" stroke-linecap="round" fill="none"/>
<rect x="229" y="626" width="78" height="80" rx="55" ry="41" fill="white" stroke="#161616" stroke-width="4" transform="rotate(5 268.0 666.0)"/>
<circle cx="250.0" cy="656.4" r="5" fill="#161616"/>
<circle cx="286.0" cy="656.4" r="5" fill="#161616"/>
<path d="M 242.0 682.4 Q 268.0 702.4 294.0 682.4" stroke="#161616" stroke-width="4" stroke-linecap="round" fill="none"/>
<path d="M 230.0 624.4 Q 268.0 586.4 304.0 624.4" stroke="#161616" stroke-width="4" stroke-linecap="round" fill="none"/>
<rect x="463" y="699" width="83" height="85" rx="27" ry="44" fill="white" stroke="#161616" stroke-width="4" transform="rotate(0 504.5 741.5)"/>
<circle cx="486.5" cy="731.8" r="5" fill="#161616"/>
<circle cx="522.5" cy="731.8" r="5" fill="#161616"/>
<path d="M 478.5 757.8 Q 504.5 777.8 530.5 757.8" stroke="#161616" stroke-width="4" stroke-linecap="round" fill="none"/>
<path d="M 466.5 699.8 Q 504.5 661.8 540.5 699.8" stroke="#161616" stroke-width="4" stroke-linecap="round" fill="none"/>
<text x="86" y="1125" font-family="Comic Sans MS, Bradley Hand, Segoe Print, sans-serif" font-size="30" fill="#404040">Sample product image 3 of 4</text>
<path d="M900 1090 C 970 1038, 1018 1156, 1114 1088" stroke="#161616" stroke-width="4" fill="none" stroke-linecap="round"/>
</svg>