<svg xmlns="http://www.w3.org/2000/svg" width="1200" height="1200" viewBox="0 0 1200 1200" fill="none">
  <rect width="1200" height="1200" fill="#e9f6ff"/>
  <rect x="42" y="42" width="1116" height="1116" rx="16" stroke="#161616" stroke-width="4"/>
  <path d="M74 110 C 210 72, 420 84, 520 112" stroke="#161616" stroke-width="4" stroke-linecap="round"/>
  <path d="M900 108 C 960 90, 1080 84, 1120 114" stroke="#161616" stroke-width="4" stroke-linecap="round"/>
  <text x="88" y="110" font-family="Comic Sans MS, Bradley Hand, Segoe Print, sans-serif" font-size="34" fill="#161616">Snoodle Doodles HQ</text>
  <text x="86" y="180" font-family="Comic Sans MS, Bradley Hand, Segoe Print, sans-serif" font-size="88" fill="#161616">Cloud Parade</text>
  <text x="86" y="255" font-family="Comic Sans MS, Bradley Hand, Segoe Print, sans-serif" font-size="66" fill="#161616">sticker pack</text>
  <text x="84" y="315" font-family="Comic Sans MS, Bradley Hand, Segoe Print, sans-serif" font-size="34" fill="#404040">Sheet view</text>

<circle cx="165" cy="714" r="37" stroke="#161616" stroke-width="4" opacity="0.9"/>
<circle cx="780" cy="804" r="36" stroke="#161616" stroke-width="4" opacity="0.9"/>
<circle cx="491" cy="579" r="80" stroke="#161616" stroke-width="4" opacity="0.9"/>
<circle cx="880" cy="870" r="54" stroke="#161616" stroke-width="4" opacity="0.9"/>
<circle cx="556" cy="579" r="78" stroke="#161616" stroke-width="4" opacity="0.9"/>
<rect x="120" y="360" width="960" height="690" rx="20" fill="#fffdf8" stroke="#161616" stroke-width="4"/>
<rect x="401" y="489" width="94" height="157" rx="44" ry="49" fill="white" stroke="#161616" stroke-width="4" transform="rotate(7 448.0 567.5)"/>
<circle cx="430.0" cy="556.36" r="5" fill="#161616"/>
<circle cx="466.0" cy="556.36" r="5" fill="#161616"/>
<path d="M 422.0 582.36 Q 448.0 602.36 474.0 582.36" stroke="#161616" stroke-width="4" stroke-linecap="round" fill="none"/>
<path d="M 410.0 524.36 Q 448.0 486.36 484.0 524.36" stroke="#161616" stroke-width="4" stroke-linecap="round" fill="none"/>
<rect x="519" y="742" width="97" height="107" rx="47" ry="49" fill="white" stroke="#161616" stroke-width="4" transform="rotate(10 567.5 795.5)"/>
<circle cx="549.5" cy="785.36" r="5" fill="#161616"/>
<circle cx="585.5" cy="785.36" r="5" fill="#161616"/>
<path d="M 541.5 811.36 Q 567.5 831.36 593.5 811.36" stroke="#161616" stroke-width="4" stroke-linecap="round" fill="none"/>
<path d="M 529.5 753.36 Q 567.5 715.36 603.5 753.36" stroke="#161616" stroke-width="4" stroke-linecap="round" fill="none"/>
<rect x="535" y="332" width="168" height="91" rx="60" ry="52" fill="white" stroke="#161616" stroke-width="4" transform="rotate(-5 619.0 377.5)"/>
<circle cx="601.0" cy="367.68" r="5" fill="#161616"/>
<circle cx="637.0" cy="367.68" r="5" fill="#161616"/>
<path d="M 593.0 393.68 Q 619.0 413.68 645.0 393.68" stroke="#161616" stroke-width="4" stroke-linecap="round" fill="none"/>
<path d="M 581.0 335.68 Q 619.0 297.68 655.0 335.68" stroke="#161616" stroke-width="4" stroke-linecap="round" fill="none"/>
<rect x="838" y="699" width="159" height="149" rx="46" ry="36" fill="white" stroke="#161616" stroke-width="4" transform="rotate(2 917.5 773.5)"/>
<circle cx="899.5" cy="762.52" r="5" fill="#161616"/>
<circle cx="935.5" cy="762.52" r="5" fill="#161616"/>
<path d="M 891.5 788.52 Q 917.5 808.52 943.5 788.52" stroke="#161616" stroke-width="4" stroke-linecap="round" fill="none"/>
<path d="M 879.5 730.52 Q 917.5 692.52 953.5 730.52" stroke="#161616" stroke-width="4" stroke-linecap="round" fill="none"/>
<text x="86" y="1125" font-family="Comic Sans MS, Bradley Hand, Segoe Print, sans-serif" font-size="30" fill="#404040">Sample product image 1 of 4</text>
<path d="M900 1090 C 970 1038, 1018 1156, 1114 1088" stroke="#161616" stroke-width="4" fill="none" stroke-linecap="round"/>
</svg>