<svg xmlns="http://www.w3.org/2000/svg" width="1200" height="1200" viewBox="0 0 1200 1200" fill="none">
  <rect width="1200" height="1200" fill="#e9f6ff"/>
  <rect x="42" y="42" width="1116" height="1116" rx="16" stroke="#161616" stroke-width="4"/>
  <path d="M74 110 C 210 72, 420 84, 520 112" stroke="#161616" stroke-width="4" stroke-linecap="round"/>
  <path d="M900 108 C 960 90, 1080 84, 1120 114" stroke="#161616" stroke-width="4" stroke-linecap="round"/>
  <text x="88" y="110" font-family="Comic Sans MS, Bradley Hand, Segoe Print, sans-serif" font-size="34" fill="#161616">Snoodle Doodles HQ</text>
  <text x="86" y="180" font-family="Comic Sans MS, Bradley Hand, Segoe Print, sans-serif" font-size="88" fill="#161616">Cloud Parade</text>
  <text x="86" y="255" font-family="Comic Sans MS, Bradley Hand, Segoe Print, sans-serif" font-size="66" fill="#161616">sticker pack</text>
  <text x="84" y="315" font-family="Comic Sans MS, Bradley Hand, Segoe Print, sans-serif" font-size="34" fill="#404040">Close-up</text>

<circle cx="511" cy="638" r="62" stroke="#161616" stroke-width="4" opacity="0.9"/>
<circle cx="643" cy="681" r="76" stroke="#161616" stroke-width="4" opacity="0.9"/>
<circle cx="682" cy="382" r="77" stroke="#161616" stroke-width="4" opacity="0.9"/>
<circle cx="903" cy="798" r="74" stroke="#161616" stroke-width="4" opacity="0.9"/>
<circle cx="908" cy="206" r="62" stroke="#161616" stroke-width="4" opacity="0.9"/>
<rect x="120" y="360" width="960" height="690" rx="20" fill="#fffdf8" stroke="#161616" stroke-width="4"/>
<rect x="675" y="722" width="90" height="89" rx="55" ry="35" fill="white" stroke="#161616" stroke-width="4" transform="rotate(-7 720.0 766.5)"/>
<circle cx="702.0" cy="756.72" r="5" fill="#161616"/>
<circle cx="738.0" cy="756.72" r="5" fill="#161616"/>
<path d="M 694.0 782.72 Q 720.0 802.72 746.0 782.72" stroke="#161616" stroke-width="4" stroke-linecap="round" fill="none"/>
<path d="M 682.0 724.72 Q 720.0 686.72 756.0 724.72" stroke="#161616" stroke-width="4" stroke-linecap="round" fill="none"/>
<rect x="726" y="586" width="77" height="85" rx="34" ry="54" fill="white" stroke="#161616" stroke-width="4" transform="rotate(-8 764.5 628.5)"/>
<circle cx="746.5" cy="618.8" r="5" fill="#161616"/>
<circle cx="782.5" cy="618.8" r="5" fill="#161616"/>
<path d="M 738.5 644.8 Q 764.5 664.8 790.5 644.8" stroke="#161616" stroke-width="4" stroke-linecap="round" fill="none"/>
<path d="M 726.5 586.8 Q 764.5 548.8 800.5 586.8" stroke="#161616" stroke-width="4" stroke-linecap="round" fill="none"/>
<rect x="166" y="408" width="180" height="154" rx="52" ry="48" fill="white" stroke="#161616" stroke-width="4" transform="rotate(3 256.0 485.0)"/>
<circle cx="238.0" cy="473.92" r="5" fill="#161616"/>
<circle cx="274.0" cy="473.92" r="5" fill="#161616"/>
<path d="M 230.0 499.92 Q 256.0 519.9200000000001 282.0 499.92" stroke="#161616" stroke-width="4" stroke-linecap="round" fill="none"/>
<path d="M 218.0 441.92 Q 256.0 403.92 292.0 441.92" stroke="#161616" stroke-width="4" stroke-linecap="round" fill="none"/>
<rect x="303" y="400" width="163" height="132" rx="27" ry="42" fill="white" stroke="#161616" stroke-width="4" transform="rotate(-5 384.5 466.0)"/>
<circle cx="366.5" cy="455.36" r="5" fill="#161616"/>
<circle cx="402.5" cy="455.36" r="5" fill="#161616"/>
<path d="M 358.5 481.36 Q 384.5 501.36 410.5 481.36" stroke="#161616" stroke-width="4" stroke-linecap="round" fill="none"/>
<path d="M 346.5 423.36 Q 384.5 385.36 420.5 423.36" stroke="#161616" stroke-width="4" stroke-linecap="round" fill="none"/>
<text x="86" y="1125" font-family="Comic Sans MS, Bradley Hand, Segoe Print, sans-serif" font-size="30" fill="#404040">Sample product image 2 of 4</text>
<path d="M900 1090 C 970 1038, 1018 1156, 1114 1088" stroke="#161616" stroke-width="4" fill="none" stroke-linecap="round"/>
</svg>