<svg xmlns="http://www.w3.org/2000/svg" width="1200" height="1200" viewBox="0 0 1200 1200" fill="none">
  <rect width="1200" height="1200" fill="#e9f6ff"/>
  <rect x="42" y="42" width="1116" height="1116" rx="16" stroke="#161616" stroke-width="4"/>
  <path d="M74 110 C 210 72, 420 84, 520 112" stroke="#161616" stroke-width="4" stroke-linecap="round"/>
  <path d="M900 108 C 960 90, 1080 84, 1120 114" stroke="#161616" stroke-width="4" stroke-linecap="round"/>
  <text x="88" y="110" font-family="Comic Sans MS, Bradley Hand, Segoe Print, sans-serif" font-size="34" fill="#161616">Snoodle Doodles HQ</text>
  <text x="86" y="180" font-family="Comic Sans MS, Bradley Hand, Segoe Print, sans-serif" font-size="88" fill="#161616">Cloud Parade</text>
  <text x="86" y="255" font-family="Comic Sans MS, Bradley Hand, Segoe Print, sans-serif" font-size="66" fill="#161616">sticker pack</text>
  <text x="84" y="315" font-family="Comic Sans MS, Bradley Hand, Segoe Print, sans-serif" font-size="34" fill="#404040">Pack spread</text>

<circle cx="586" cy="689" r="72" stroke="#161616" stroke-width="4" opacity="0.9"/>
<circle cx="441" cy="226" r="31" stroke="#161616" stroke-width="4" opacity="0.9"/>
<circle cx="443" cy="261" r="37" stroke="#161616" stroke-width="4" opacity="0.9"/>
<circle cx="480" cy="234" r="76" stroke="#161616" stroke-width="4" opacity="0.9"/>
<circle cx="244" cy="705" r="28" stroke="#161616" stroke-width="4" opacity="0.9"/>
<rect x="120" y="360" width="960" height="690" rx="20" fill="#fffdf8" stroke="#161616" stroke-width="4"/>
<rect x="774" y="361" width="156" height="159" rx="43" ry="43" fill="white" stroke="#161616" stroke-width="4" transform="rotate(0 852.0 440.5)"/>
<circle cx="834.0" cy="429.32" r="5" fill="#161616"/>
<circle cx="870.0" cy="429.32" r="5" fill="#161616"/>
<path d="M 826.0 455.32 Q 852.0 475.32 878.0 455.32" stroke="#161616" stroke-width="4" stroke-linecap="round" fill="none"/>
<path d="M 814.0 397.32 Q 852.0 359.32 888.0 397.32" stroke="#161616" stroke-width="4" stroke-linecap="round" fill="none"/>
<rect x="516" y="648" width="85" height="163" rx="38" ry="55" fill="white" stroke="#161616" stroke-width="4" transform="rotate(-8 558.5 729.5)"/>
<circle cx="540.5" cy="718.24" r="5" fill="#161616"/>
<circle cx="576.5" cy="718.24" r="5" fill="#161616"/>
<path d="M 532.5 744.24 Q 558.5 764.24 584.5 744.24" stroke="#161616" stroke-width="4" stroke-linecap="round" fill="none"/>
<path d="M 520.5 686.24 Q 558.5 648.24 594.5 686.24" stroke="#161616" stroke-width="4" stroke-linecap="round" fill="none"/>
<rect x="212" y="451" width="166" height="108" rx="29" ry="28" fill="white" stroke="#161616" stroke-width="4" transform="rotate(-5 295.0 505.0)"/>
<circle cx="277.0" cy="494.84" r="5" fill="#161616"/>
<circle cx="313.0" cy="494.84" r="5" fill="#161616"/>
<path d="M 269.0 520.8399999999999 Q 295.0 540.8399999999999 321.0 520.8399999999999" stroke="#161616" stroke-width="4" stroke-linecap="round" fill="none"/>
<path d="M 257.0 462.84 Q 295.0 424.84 331.0 462.84" stroke="#161616" stroke-width="4" stroke-linecap="round" fill="none"/>
<rect x="811" y="733" width="90" height="155" rx="31" ry="30" fill="white" stroke="#161616" stroke-width="4" transform="rotate(-8 856.0 810.5)"/>
<circle cx="838.0" cy="799.4" r="5" fill="#161616"/>
<circle cx="874.0" cy="799.4" r="5" fill="#161616"/>
<path d="M 830.0 825.4 Q 856.0 845.4 882.0 825.4" stroke="#161616" stroke-width="4" stroke-linecap="round" fill="none"/>
<path d="M 818.0 767.4 Q 856.0 729.4 892.0 767.4" stroke="#161616" stroke-width="4" stroke-linecap="round" fill="none"/>
<text x="86" y="1125" font-family="Comic Sans MS, Bradley Hand, Segoe Print, sans-serif" font-size="30" fill="#404040">Sample product image 3 of 4</text>
<path d="M900 1090 C 970 1038, 1018 1156, 1114 1088" stroke="#161616" stroke-width="4" fill="none" stroke-linecap="round"/>
</svg>