<svg xmlns="http://www.w3.org/2000/svg" width="1200" height="1200" viewBox="0 0 1200 1200" fill="none">
  <rect width="1200" height="1200" fill="#e9f6ff"/>
  <rect x="42" y="42" width="1116" height="1116" rx="16" stroke="#161616" stroke-width="4"/>
  <path d="M74 110 C 210 72, 420 84, 520 112" stroke="#161616" stroke-width="4" stroke-linecap="round"/>
  <path d="M900 108 C 960 90, 1080 84, 1120 114" stroke="#161616" stroke-width="4" stroke-linecap="round"/>
  <text x="88" y="110" font-family="Comic Sans MS, Bradley Hand, Segoe Print, sans-serif" font-size="34" fill="#161616">Snoodle Doodles HQ</text>
  <text x="86" y="180" font-family="Comic Sans MS, Bradley Hand, Segoe Print, sans-serif" font-size="88" fill="#161616">Cloud Parade</text>
  <text x="86" y="255" font-family="Comic Sans MS, Bradley Hand, Segoe Print, sans-serif" font-size="66" fill="#161616">sticker pack</text>
  <text x="84" y="315" font-family="Comic Sans MS, Bradley Hand, Segoe Print, sans-serif" font-size="34" fill="#404040">Sticker detail</text>

<circle cx="639" cy="296" r="33" stroke="#161616" stroke-width="4" opacity="0.9"/>
<circle cx="366" cy="419" r="53" stroke="#161616" stroke-width="4" opacity="0.9"/>
<circle cx="97" cy="813" r="57" stroke="#161616" stroke-width="4" opacity="0.9"/>
<circle cx="459" cy="422" r="53" stroke="#161616" stroke-width="4" opacity="0.9"/>
<circle cx="689" cy="390" r="60" stroke="#161616" stroke-width="4" opacity="0.9"/>
<rect x="120" y="360" width="960" height="690" rx="20" fill="#fffdf8" stroke="#161616" stroke-width="4"/>
<rect x="160" y="685" width="71" height="175" rx="30" ry="44" fill="white" stroke="#161616" stroke-width="4" transform="rotate(5 195.5 772.5)"/>
<circle cx="177.5" cy="761.0" r="5" fill="#161616"/>
<circle cx="213.5" cy="761.0" r="5" fill="#161616"/>
<path d="M 169.5 787.0 Q 195.5 807.0 221.5 787.0" stroke="#161616" stroke-width="4" stroke-linecap="round" fill="none"/>
<path d="M 157.5 729.0 Q 195.5 691.0 231.5 729.0" stroke="#161616" stroke-width="4" stroke-linecap="round" fill="none"/>
<rect x="586" y="605" width="128" height="124" rx="42" ry="29" fill="white" stroke="#161616" stroke-width="4" transform="rotate(1 650.0 667.0)"/>
<circle cx="632.0" cy="656.52" r="5" fill="#161616"/>
<circle cx="668.0" cy="656.52" r="5" fill="#161616"/>
<path d="M 624.0 682.52 Q 650.0 702.52 676.0 682.52" stroke="#161616" stroke-width="4" stroke-linecap="round" fill="none"/>
<path d="M 612.0 624.52 Q 650.0 586.52 686.0 624.52" stroke="#161616" stroke-width="4" stroke-linecap="round" fill="none"/>
<rect x="358" y="286" width="122" height="139" rx="52" ry="47" fill="white" stroke="#161616" stroke-width="4" transform="rotate(-9 419.0 355.5)"/>
<circle cx="401.0" cy="344.72" r="5" fill="#161616"/>
<circle cx="437.0" cy="344.72" r="5" fill="#161616"/>
<path d="M 393.0 370.72 Q 419.0 390.72 445.0 370.72" stroke="#161616" stroke-width="4" stroke-linecap="round" fill="none"/>
<path d="M 381.0 312.72 Q 419.0 274.72 455.0 312.72" stroke="#161616" stroke-width="4" stroke-linecap="round" fill="none"/>
<rect x="799" y="403" width="103" height="96" rx="59" ry="26" fill="white" stroke="#161616" stroke-width="4" transform="rotate(-2 850.5 451.0)"/>
<circle cx="832.5" cy="441.08" r="5" fill="#161616"/>
<circle cx="868.5" cy="441.08" r="5" fill="#161616"/>
<path d="M 824.5 467.08 Q 850.5 487.08 876.5 467.08" stroke="#161616" stroke-width="4" stroke-linecap="round" fill="none"/>
<path d="M 812.5 409.08 Q 850.5 371.08 886.5 409.08" stroke="#161616" stroke-width="4" stroke-linecap="round" fill="none"/>
<text x="86" y="1125" font-family="Comic Sans MS, Bradley Hand, Segoe Print, sans-serif" font-size="30" fill="#404040">Sample product image 4 of 4</text>
<path d="M900 1090 C 970 1038, 1018 1156, 1114 1088" stroke="#161616" stroke-width="4" fill="none" stroke-linecap="round"/>
</svg>