<svg xmlns="http://www.w3.org/2000/svg" width="1200" height="1200" viewBox="0 0 1200 1200" fill="none">
  <rect width="1200" height="1200" fill="#eef7e8"/>
  <rect x="42" y="42" width="1116" height="1116" rx="16" stroke="#161616" stroke-width="4"/>
  <path d="M74 110 C 210 72, 420 84, 520 112" stroke="#161616" stroke-width="4" stroke-linecap="round"/>
  <path d="M900 108 C 960 90, 1080 84, 1120 114" stroke="#161616" stroke-width="4" stroke-linecap="round"/>
  <text x="88" y="110" font-family="Comic Sans MS, Bradley Hand, Segoe Print, sans-serif" font-size="34" fill="#161616">Snoodle Doodles HQ</text>
  <text x="86" y="180" font-family="Comic Sans MS, Bradley Hand, Segoe Print, sans-serif" font-size="88" fill="#161616">Tiny Frog</text>
  <text x="86" y="255" font-family="Comic Sans MS, Bradley Hand, Segoe Print, sans-serif" font-size="66" fill="#161616">sticker pack</text>
  <text x="84" y="315" font-family="Comic Sans MS, Bradley Hand, Segoe Print, sans-serif" font-size="34" fill="#404040">Sheet view</text>

<circle cx="329" cy="624" r="61" stroke="#161616" stroke-width="4" opacity="0.9"/>
<circle cx="245" cy="361" r="78" stroke="#161616" stroke-width="4" opacity="0.9"/>
<circle cx="316" cy="675" r="42" stroke="#161616" stroke-width="4" opacity="0.9"/>
<circle cx="486" cy="671" r="55" stroke="#161616" stroke-width="4" opacity="0.9"/>
<circle cx="829" cy="822" r="61" stroke="#161616" stroke-width="4" opacity="0.9"/>
<rect x="120" y="360" width="960" height="690" rx="20" fill="#fffdf8" stroke="#161616" stroke-width="4"/>
<rect x="676" y="590" width="145" height="164" rx="36" ry="47" fill="white" stroke="#161616" stroke-width="4" transform="rotate(9 748.5 672.0)"/>
<circle cx="730.5" cy="660.72" r="5" fill="#161616"/>
<circle cx="766.5" cy="660.72" r="5" fill="#161616"/>
<path d="M 722.5 686.72 Q 748.5 706.72 774.5 686.72" stroke="#161616" stroke-width="4" stroke-linecap="round" fill="none"/>
<path d="M 710.5 628.72 Q 748.5 590.72 784.5 628.72" stroke="#161616" stroke-width="4" stroke-linecap="round" fill="none"/>
<rect x="508" y="636" width="105" height="131" rx="44" ry="48" fill="white" stroke="#161616" stroke-width="4" transform="rotate(4 560.5 701.5)"/>
<circle cx="542.5" cy="690.88" r="5" fill="#161616"/>
<circle cx="578.5" cy="690.88" r="5" fill="#161616"/>
<path d="M 534.5 716.88 Q 560.5 736.88 586.5 716.88" stroke="#161616" stroke-width="4" stroke-linecap="round" fill="none"/>
<path d="M 522.5 658.88 Q 560.5 620.88 596.5 658.88" stroke="#161616" stroke-width="4" stroke-linecap="round" fill="none"/>
<rect x="147" y="356" width="73" height="148" rx="37" ry="26" fill="white" stroke="#161616" stroke-width="4" transform="rotate(4 183.5 430.0)"/>
<circle cx="165.5" cy="419.03999999999996" r="5" fill="#161616"/>
<circle cx="201.5" cy="419.03999999999996" r="5" fill="#161616"/>
<path d="M 157.5 445.03999999999996 Q 183.5 465.03999999999996 209.5 445.03999999999996" stroke="#161616" stroke-width="4" stroke-linecap="round" fill="none"/>
<path d="M 145.5 387.03999999999996 Q 183.5 349.03999999999996 219.5 387.03999999999996" stroke="#161616" stroke-width="4" stroke-linecap="round" fill="none"/>
<rect x="404" y="273" width="131" height="166" rx="35" ry="55" fill="white" stroke="#161616" stroke-width="4" transform="rotate(-10 469.5 356.0)"/>
<circle cx="451.5" cy="344.68" r="5" fill="#161616"/>
<circle cx="487.5" cy="344.68" r="5" fill="#161616"/>
<path d="M 443.5 370.68 Q 469.5 390.68 495.5 370.68" stroke="#161616" stroke-width="4" stroke-linecap="round" fill="none"/>
<path d="M 431.5 312.68 Q 469.5 274.68 505.5 312.68" stroke="#161616" stroke-width="4" stroke-linecap="round" fill="none"/>
<text x="86" y="1125" font-family="Comic Sans MS, Bradley Hand, Segoe Print, sans-serif" font-size="30" fill="#404040">Sample product image 1 of 4</text>
<path d="M900 1090 C 970 1038, 1018 1156, 1114 1088" stroke="#161616" stroke-width="4" fill="none" stroke-linecap="round"/>
</svg>