<svg xmlns="http://www.w3.org/2000/svg" width="1200" height="1200" viewBox="0 0 1200 1200" fill="none">
  <rect width="1200" height="1200" fill="#eef7e8"/>
  <rect x="42" y="42" width="1116" height="1116" rx="16" stroke="#161616" stroke-width="4"/>
  <path d="M74 110 C 210 72, 420 84, 520 112" stroke="#161616" stroke-width="4" stroke-linecap="round"/>
  <path d="M900 108 C 960 90, 1080 84, 1120 114" stroke="#161616" stroke-width="4" stroke-linecap="round"/>
  <text x="88" y="110" font-family="Comic Sans MS, Bradley Hand, Segoe Print, sans-serif" font-size="34" fill="#161616">Snoodle Doodles HQ</text>
  <text x="86" y="180" font-family="Comic Sans MS, Bradley Hand, Segoe Print, sans-serif" font-size="88" fill="#161616">Tiny Frog</text>
  <text x="86" y="255" font-family="Comic Sans MS, Bradley Hand, Segoe Print, sans-serif" font-size="66" fill="#161616">sticker pack</text>
  <text x="84" y="315" font-family="Comic Sans MS, Bradley Hand, Segoe Print, sans-serif" font-size="34" fill="#404040">Pack spread</text>

<circle cx="711" cy="331" r="55" stroke="#161616" stroke-width="4" opacity="0.9"/>
<circle cx="594" cy="838" r="56" stroke="#161616" stroke-width="4" opacity="0.9"/>
<circle cx="815" cy="643" r="49" stroke="#161616" stroke-width="4" opacity="0.9"/>
<circle cx="831" cy="575" r="72" stroke="#161616" stroke-width="4" opacity="0.9"/>
<circle cx="111" cy="147" r="84" stroke="#161616" stroke-width="4" opacity="0.9"/>
<rect x="120" y="360" width="960" height="690" rx="20" fill="#fffdf8" stroke="#161616" stroke-width="4"/>
<rect x="313" y="592" width="165" height="96" rx="57" ry="45" fill="white" stroke="#161616" stroke-width="4" transform="rotate(6 395.5 640.0)"/>
<circle cx="377.5" cy="630.08" r="5" fill="#161616"/>
<circle cx="413.5" cy="630.08" r="5" fill="#161616"/>
<path d="M 369.5 656.08 Q 395.5 676.08 421.5 656.08" stroke="#161616" stroke-width="4" stroke-linecap="round" fill="none"/>
<path d="M 357.5 598.08 Q 395.5 560.08 431.5 598.08" stroke="#161616" stroke-width="4" stroke-linecap="round" fill="none"/>
<rect x="407" y="297" width="91" height="86" rx="50" ry="28" fill="white" stroke="#161616" stroke-width="4" transform="rotate(0 452.5 340.0)"/>
<circle cx="434.5" cy="330.28" r="5" fill="#161616"/>
<circle cx="470.5" cy="330.28" r="5" fill="#161616"/>
<path d="M 426.5 356.28 Q 452.5 376.28 478.5 356.28" stroke="#161616" stroke-width="4" stroke-linecap="round" fill="none"/>
<path d="M 414.5 298.28 Q 452.5 260.28 488.5 298.28" stroke="#161616" stroke-width="4" stroke-linecap="round" fill="none"/>
<rect x="508" y="474" width="126" height="105" rx="42" ry="34" fill="white" stroke="#161616" stroke-width="4" transform="rotate(-8 571.0 526.5)"/>
<circle cx="553.0" cy="516.4" r="5" fill="#161616"/>
<circle cx="589.0" cy="516.4" r="5" fill="#161616"/>
<path d="M 545.0 542.4 Q 571.0 562.4 597.0 542.4" stroke="#161616" stroke-width="4" stroke-linecap="round" fill="none"/>
<path d="M 533.0 484.4 Q 571.0 446.4 607.0 484.4" stroke="#161616" stroke-width="4" stroke-linecap="round" fill="none"/>
<rect x="374" y="369" width="87" height="124" rx="60" ry="51" fill="white" stroke="#161616" stroke-width="4" transform="rotate(2 417.5 431.0)"/>
<circle cx="399.5" cy="420.52" r="5" fill="#161616"/>
<circle cx="435.5" cy="420.52" r="5" fill="#161616"/>
<path d="M 391.5 446.52 Q 417.5 466.52 443.5 446.52" stroke="#161616" stroke-width="4" stroke-linecap="round" fill="none"/>
<path d="M 379.5 388.52 Q 417.5 350.52 453.5 388.52" stroke="#161616" stroke-width="4" stroke-linecap="round" fill="none"/>
<text x="86" y="1125" font-family="Comic Sans MS, Bradley Hand, Segoe Print, sans-serif" font-size="30" fill="#404040">Sample product image 3 of 4</text>
<path d="M900 1090 C 970 1038, 1018 1156, 1114 1088" stroke="#161616" stroke-width="4" fill="none" stroke-linecap="round"/>
</svg>