<svg xmlns="http://www.w3.org/2000/svg" width="1200" height="1200" viewBox="0 0 1200 1200" fill="none">
  <rect width="1200" height="1200" fill="#f7eefc"/>
  <rect x="42" y="42" width="1116" height="1116" rx="16" stroke="#161616" stroke-width="4"/>
  <path d="M74 110 C 210 72, 420 84, 520 112" stroke="#161616" stroke-width="4" stroke-linecap="round"/>
  <path d="M900 108 C 960 90, 1080 84, 1120 114" stroke="#161616" stroke-width="4" stroke-linecap="round"/>
  <text x="88" y="110" font-family="Comic Sans MS, Bradley Hand, Segoe Print, sans-serif" font-size="34" fill="#161616">Snoodle Doodles HQ</text>
  <text x="86" y="180" font-family="Comic Sans MS, Bradley Hand, Segoe Print, sans-serif" font-size="88" fill="#161616">Planet Pal</text>
  <text x="86" y="255" font-family="Comic Sans MS, Bradley Hand, Segoe Print, sans-serif" font-size="66" fill="#161616">sticker pack</text>
  <text x="84" y="315" font-family="Comic Sans MS, Bradley Hand, Segoe Print, sans-serif" font-size="34" fill="#404040">Sheet view</text>

<circle cx="470" cy="450" r="40" stroke="#161616" stroke-width="4" opacity="0.9"/>
<circle cx="250" cy="504" r="62" stroke="#161616" stroke-width="4" opacity="0.9"/>
<circle cx="786" cy="400" r="61" stroke="#161616" stroke-width="4" opacity="0.9"/>
<circle cx="363" cy="502" r="80" stroke="#161616" stroke-width="4" opacity="0.9"/>
<circle cx="829" cy="891" r="62" stroke="#161616" stroke-width="4" opacity="0.9"/>
<rect x="120" y="360" width="960" height="690" rx="20" fill="#fffdf8" stroke="#161616" stroke-width="4"/>
<rect x="149" y="495" width="154" height="82" rx="27" ry="52" fill="white" stroke="#161616" stroke-width="4" transform="rotate(-1 226.0 536.0)"/>
<circle cx="208.0" cy="526.36" r="5" fill="#161616"/>
<circle cx="244.0" cy="526.36" r="5" fill="#161616"/>
<path d="M 200.0 552.36 Q 226.0 572.36 252.0 552.36" stroke="#161616" stroke-width="4" stroke-linecap="round" fill="none"/>
<path d="M 188.0 494.36 Q 226.0 456.36 262.0 494.36" stroke="#161616" stroke-width="4" stroke-linecap="round" fill="none"/>
<rect x="589" y="398" width="89" height="172" rx="38" ry="29" fill="white" stroke="#161616" stroke-width="4" transform="rotate(1 633.5 484.0)"/>
<circle cx="615.5" cy="472.56" r="5" fill="#161616"/>
<circle cx="651.5" cy="472.56" r="5" fill="#161616"/>
<path d="M 607.5 498.56 Q 633.5 518.56 659.5 498.56" stroke="#161616" stroke-width="4" stroke-linecap="round" fill="none"/>
<path d="M 595.5 440.56 Q 633.5 402.56 669.5 440.56" stroke="#161616" stroke-width="4" stroke-linecap="round" fill="none"/>
<rect x="466" y="411" width="102" height="163" rx="55" ry="33" fill="white" stroke="#161616" stroke-width="4" transform="rotate(7 517.0 492.5)"/>
<circle cx="499.0" cy="481.24" r="5" fill="#161616"/>
<circle cx="535.0" cy="481.24" r="5" fill="#161616"/>
<path d="M 491.0 507.24 Q 517.0 527.24 543.0 507.24" stroke="#161616" stroke-width="4" stroke-linecap="round" fill="none"/>
<path d="M 479.0 449.24 Q 517.0 411.24 553.0 449.24" stroke="#161616" stroke-width="4" stroke-linecap="round" fill="none"/>
<rect x="847" y="300" width="85" height="180" rx="26" ry="32" fill="white" stroke="#161616" stroke-width="4" transform="rotate(-7 889.5 390.0)"/>
<circle cx="871.5" cy="378.4" r="5" fill="#161616"/>
<circle cx="907.5" cy="378.4" r="5" fill="#161616"/>
<path d="M 863.5 404.4 Q 889.5 424.4 915.5 404.4" stroke="#161616" stroke-width="4" stroke-linecap="round" fill="none"/>
<path d="M 851.5 346.4 Q 889.5 308.4 925.5 346.4" stroke="#161616" stroke-width="4" stroke-linecap="round" fill="none"/>
<text x="86" y="1125" font-family="Comic Sans MS, Bradley Hand, Segoe Print, sans-serif" font-size="30" fill="#404040">Sample product image 1 of 4</text>
<path d="M900 1090 C 970 1038, 1018 1156, 1114 1088" stroke="#161616" stroke-width="4" fill="none" stroke-linecap="round"/>
</svg>