<svg xmlns="http://www.w3.org/2000/svg" width="1200" height="1200" viewBox="0 0 1200 1200" fill="none">
  <rect width="1200" height="1200" fill="#f7eefc"/>
  <rect x="42" y="42" width="1116" height="1116" rx="16" stroke="#161616" stroke-width="4"/>
  <path d="M74 110 C 210 72, 420 84, 520 112" stroke="#161616" stroke-width="4" stroke-linecap="round"/>
  <path d="M900 108 C 960 90, 1080 84, 1120 114" stroke="#161616" stroke-width="4" stroke-linecap="round"/>
  <text x="88" y="110" font-family="Comic Sans MS, Bradley Hand, Segoe Print, sans-serif" font-size="34" fill="#161616">Snoodle Doodles HQ</text>
  <text x="86" y="180" font-family="Comic Sans MS, Bradley Hand, Segoe Print, sans-serif" font-size="88" fill="#161616">Planet Pal</text>
  <text x="86" y="255" font-family="Comic Sans MS, Bradley Hand, Segoe Print, sans-serif" font-size="66" fill="#161616">sticker pack</text>
  <text x="84" y="315" font-family="Comic Sans MS, Bradley Hand, Segoe Print, sans-serif" font-size="34" fill="#404040">Close-up</text>

<circle cx="734" cy="224" r="27" stroke="#161616" stroke-width="4" opacity="0.9"/>
<circle cx="839" cy="391" r="41" stroke="#161616" stroke-width="4" opacity="0.9"/>
<circle cx="308" cy="252" r="73" stroke="#161616" stroke-width="4" opacity="0.9"/>
<circle cx="184" cy="802" r="73" stroke="#161616" stroke-width="4" opacity="0.9"/>
<circle cx="638" cy="199" r="63" stroke="#161616" stroke-width="4" opacity="0.9"/>
<rect x="120" y="360" width="960" height="690" rx="20" fill="#fffdf8" stroke="#161616" stroke-width="4"/>
<rect x="572" y="272" width="73" height="91" rx="42" ry="25" fill="white" stroke="#161616" stroke-width="4" transform="rotate(-5 608.5 317.5)"/>
<circle cx="590.5" cy="307.68" r="5" fill="#161616"/>
<circle cx="626.5" cy="307.68" r="5" fill="#161616"/>
<path d="M 582.5 333.68 Q 608.5 353.68 634.5 333.68" stroke="#161616" stroke-width="4" stroke-linecap="round" fill="none"/>
<path d="M 570.5 275.68 Q 608.5 237.68 644.5 275.68" stroke="#161616" stroke-width="4" stroke-linecap="round" fill="none"/>
<rect x="363" y="478" width="134" height="157" rx="52" ry="46" fill="white" stroke="#161616" stroke-width="4" transform="rotate(-2 430.0 556.5)"/>
<circle cx="412.0" cy="545.36" r="5" fill="#161616"/>
<circle cx="448.0" cy="545.36" r="5" fill="#161616"/>
<path d="M 404.0 571.36 Q 430.0 591.36 456.0 571.36" stroke="#161616" stroke-width="4" stroke-linecap="round" fill="none"/>
<path d="M 392.0 513.36 Q 430.0 475.36 466.0 513.36" stroke="#161616" stroke-width="4" stroke-linecap="round" fill="none"/>
<rect x="167" y="443" width="161" height="163" rx="34" ry="38" fill="white" stroke="#161616" stroke-width="4" transform="rotate(0 247.5 524.5)"/>
<circle cx="229.5" cy="513.24" r="5" fill="#161616"/>
<circle cx="265.5" cy="513.24" r="5" fill="#161616"/>
<path d="M 221.5 539.24 Q 247.5 559.24 273.5 539.24" stroke="#161616" stroke-width="4" stroke-linecap="round" fill="none"/>
<path d="M 209.5 481.24 Q 247.5 443.24 283.5 481.24" stroke="#161616" stroke-width="4" stroke-linecap="round" fill="none"/>
<rect x="698" y="669" width="98" height="137" rx="31" ry="30" fill="white" stroke="#161616" stroke-width="4" transform="rotate(2 747.0 737.5)"/>
<circle cx="729.0" cy="726.76" r="5" fill="#161616"/>
<circle cx="765.0" cy="726.76" r="5" fill="#161616"/>
<path d="M 721.0 752.76 Q 747.0 772.76 773.0 752.76" stroke="#161616" stroke-width="4" stroke-linecap="round" fill="none"/>
<path d="M 709.0 694.76 Q 747.0 656.76 783.0 694.76" stroke="#161616" stroke-width="4" stroke-linecap="round" fill="none"/>
<text x="86" y="1125" font-family="Comic Sans MS, Bradley Hand, Segoe Print, sans-serif" font-size="30" fill="#404040">Sample product image 2 of 4</text>
<path d="M900 1090 C 970 1038, 1018 1156, 1114 1088" stroke="#161616" stroke-width="4" fill="none" stroke-linecap="round"/>
</svg>