<svg xmlns="http://www.w3.org/2000/svg" width="1200" height="1200" viewBox="0 0 1200 1200" fill="none">
  <rect width="1200" height="1200" fill="#f7eefc"/>
  <rect x="42" y="42" width="1116" height="1116" rx="16" stroke="#161616" stroke-width="4"/>
  <path d="M74 110 C 210 72, 420 84, 520 112" stroke="#161616" stroke-width="4" stroke-linecap="round"/>
  <path d="M900 108 C 960 90, 1080 84, 1120 114" stroke="#161616" stroke-width="4" stroke-linecap="round"/>
  <text x="88" y="110" font-family="Comic Sans MS, Bradley Hand, Segoe Print, sans-serif" font-size="34" fill="#161616">Snoodle Doodles HQ</text>
  <text x="86" y="180" font-family="Comic Sans MS, Bradley Hand, Segoe Print, sans-serif" font-size="88" fill="#161616">Planet Pal</text>
  <text x="86" y="255" font-family="Comic Sans MS, Bradley Hand, Segoe Print, sans-serif" font-size="66" fill="#161616">sticker pack</text>
  <text x="84" y="315" font-family="Comic Sans MS, Bradley Hand, Segoe Print, sans-serif" font-size="34" fill="#404040">Pack spread</text>

<circle cx="119" cy="402" r="70" stroke="#161616" stroke-width="4" opacity="0.9"/>
<circle cx="860" cy="257" r="55" stroke="#161616" stroke-width="4" opacity="0.9"/>
<circle cx="458" cy="797" r="70" stroke="#161616" stroke-width="4" opacity="0.9"/>
<circle cx="891" cy="208" r="55" stroke="#161616" stroke-width="4" opacity="0.9"/>
<circle cx="693" cy="620" r="64" stroke="#161616" stroke-width="4" opacity="0.9"/>
<rect x="120" y="360" width="960" height="690" rx="20" fill="#fffdf8" stroke="#161616" stroke-width="4"/>
<rect x="159" y="682" width="143" height="127" rx="57" ry="56" fill="white" stroke="#161616" stroke-width="4" transform="rotate(-6 230.5 745.5)"/>
<circle cx="212.5" cy="734.96" r="5" fill="#161616"/>
<circle cx="248.5" cy="734.96" r="5" fill="#161616"/>
<path d="M 204.5 760.96 Q 230.5 780.96 256.5 760.96" stroke="#161616" stroke-width="4" stroke-linecap="round" fill="none"/>
<path d="M 192.5 702.96 Q 230.5 664.96 266.5 702.96" stroke="#161616" stroke-width="4" stroke-linecap="round" fill="none"/>
<rect x="779" y="684" width="120" height="102" rx="49" ry="57" fill="white" stroke="#161616" stroke-width="4" transform="rotate(-2 839.0 735.0)"/>
<circle cx="821.0" cy="724.96" r="5" fill="#161616"/>
<circle cx="857.0" cy="724.96" r="5" fill="#161616"/>
<path d="M 813.0 750.96 Q 839.0 770.96 865.0 750.96" stroke="#161616" stroke-width="4" stroke-linecap="round" fill="none"/>
<path d="M 801.0 692.96 Q 839.0 654.96 875.0 692.96" stroke="#161616" stroke-width="4" stroke-linecap="round" fill="none"/>
<rect x="199" y="349" width="174" height="95" rx="36" ry="49" fill="white" stroke="#161616" stroke-width="4" transform="rotate(-8 286.0 396.5)"/>
<circle cx="268.0" cy="386.6" r="5" fill="#161616"/>
<circle cx="304.0" cy="386.6" r="5" fill="#161616"/>
<path d="M 260.0 412.6 Q 286.0 432.6 312.0 412.6" stroke="#161616" stroke-width="4" stroke-linecap="round" fill="none"/>
<path d="M 248.0 354.6 Q 286.0 316.6 322.0 354.6" stroke="#161616" stroke-width="4" stroke-linecap="round" fill="none"/>
<rect x="524" y="397" width="82" height="100" rx="28" ry="28" fill="white" stroke="#161616" stroke-width="4" transform="rotate(-5 565.0 447.0)"/>
<circle cx="547.0" cy="437.0" r="5" fill="#161616"/>
<circle cx="583.0" cy="437.0" r="5" fill="#161616"/>
<path d="M 539.0 463.0 Q 565.0 483.0 591.0 463.0" stroke="#161616" stroke-width="4" stroke-linecap="round" fill="none"/>
<path d="M 527.0 405.0 Q 565.0 367.0 601.0 405.0" stroke="#161616" stroke-width="4" stroke-linecap="round" fill="none"/>
<text x="86" y="1125" font-family="Comic Sans MS, Bradley Hand, Segoe Print, sans-serif" font-size="30" fill="#404040">Sample product image 3 of 4</text>
<path d="M900 1090 C 970 1038, 1018 1156, 1114 1088" stroke="#161616" stroke-width="4" fill="none" stroke-linecap="round"/>
</svg>