<svg xmlns="http://www.w3.org/2000/svg" width="1200" height="1200" viewBox="0 0 1200 1200" fill="none">
  <rect width="1200" height="1200" fill="#e9f6ff"/>
  <rect x="42" y="42" width="1116" height="1116" rx="16" stroke="#161616" stroke-width="4"/>
  <path d="M74 110 C 210 72, 420 84, 520 112" stroke="#161616" stroke-width="4" stroke-linecap="round"/>
  <path d="M900 108 C 960 90, 1080 84, 1120 114" stroke="#161616" stroke-width="4" stroke-linecap="round"/>
  <text x="88" y="110" font-family="Comic Sans MS, Bradley Hand, Segoe Print, sans-serif" font-size="34" fill="#161616">Snoodle Doodles HQ</text>
  <text x="86" y="180" font-family="Comic Sans MS, Bradley Hand, Segoe Print, sans-serif" font-size="88" fill="#161616">Happy Blob</text>
  <text x="86" y="255" font-family="Comic Sans MS, Bradley Hand, Segoe Print, sans-serif" font-size="66" fill="#161616">sticker pack</text>
  <text x="84" y="315" font-family="Comic Sans MS, Bradley Hand, Segoe Print, sans-serif" font-size="34" fill="#404040">Sheet view</text>

<circle cx="543" cy="683" r="80" stroke="#161616" stroke-width="4" opacity="0.9"/>
<circle cx="879" cy="586" r="54" stroke="#161616" stroke-width="4" opacity="0.9"/>
<circle cx="600" cy="711" r="38" stroke="#161616" stroke-width="4" opacity="0.9"/>
<circle cx="269" cy="634" r="56" stroke="#161616" stroke-width="4" opacity="0.9"/>
<circle cx="724" cy="738" r="76" stroke="#161616" stroke-width="4" opacity="0.9"/>
<rect x="120" y="360" width="960" height="690" rx="20" fill="#fffdf8" stroke="#161616" stroke-width="4"/>
<rect x="330" y="336" width="127" height="118" rx="58" ry="29" fill="white" stroke="#161616" stroke-width="4" transform="rotate(-9 393.5 395.0)"/>
<circle cx="375.5" cy="384.64" r="5" fill="#161616"/>
<circle cx="411.5" cy="384.64" r="5" fill="#161616"/>
<path d="M 367.5 410.64 Q 393.5 430.64 419.5 410.64" stroke="#161616" stroke-width="4" stroke-linecap="round" fill="none"/>
<path d="M 355.5 352.64 Q 393.5 314.64 429.5 352.64" stroke="#161616" stroke-width="4" stroke-linecap="round" fill="none"/>
<rect x="285" y="332" width="138" height="168" rx="27" ry="37" fill="white" stroke="#161616" stroke-width="4" transform="rotate(-3 354.0 416.0)"/>
<circle cx="336.0" cy="404.64" r="5" fill="#161616"/>
<circle cx="372.0" cy="404.64" r="5" fill="#161616"/>
<path d="M 328.0 430.64 Q 354.0 450.64 380.0 430.64" stroke="#161616" stroke-width="4" stroke-linecap="round" fill="none"/>
<path d="M 316.0 372.64 Q 354.0 334.64 390.0 372.64" stroke="#161616" stroke-width="4" stroke-linecap="round" fill="none"/>
<rect x="789" y="282" width="146" height="130" rx="26" ry="54" fill="white" stroke="#161616" stroke-width="4" transform="rotate(0 862.0 347.0)"/>
<circle cx="844.0" cy="336.4" r="5" fill="#161616"/>
<circle cx="880.0" cy="336.4" r="5" fill="#161616"/>
<path d="M 836.0 362.4 Q 862.0 382.4 888.0 362.4" stroke="#161616" stroke-width="4" stroke-linecap="round" fill="none"/>
<path d="M 824.0 304.4 Q 862.0 266.4 898.0 304.4" stroke="#161616" stroke-width="4" stroke-linecap="round" fill="none"/>
<rect x="603" y="401" width="149" height="81" rx="53" ry="37" fill="white" stroke="#161616" stroke-width="4" transform="rotate(6 677.5 441.5)"/>
<circle cx="659.5" cy="431.88" r="5" fill="#161616"/>
<circle cx="695.5" cy="431.88" r="5" fill="#161616"/>
<path d="M 651.5 457.88 Q 677.5 477.88 703.5 457.88" stroke="#161616" stroke-width="4" stroke-linecap="round" fill="none"/>
<path d="M 639.5 399.88 Q 677.5 361.88 713.5 399.88" stroke="#161616" stroke-width="4" stroke-linecap="round" fill="none"/>
<text x="86" y="1125" font-family="Comic Sans MS, Bradley Hand, Segoe Print, sans-serif" font-size="30" fill="#404040">Sample product image 1 of 4</text>
<path d="M900 1090 C 970 1038, 1018 1156, 1114 1088" stroke="#161616" stroke-width="4" fill="none" stroke-linecap="round"/>
</svg>