<svg xmlns="http://www.w3.org/2000/svg" width="1200" height="1200" viewBox="0 0 1200 1200" fill="none">
  <rect width="1200" height="1200" fill="#e9f6ff"/>
  <rect x="42" y="42" width="1116" height="1116" rx="16" stroke="#161616" stroke-width="4"/>
  <path d="M74 110 C 210 72, 420 84, 520 112" stroke="#161616" stroke-width="4" stroke-linecap="round"/>
  <path d="M900 108 C 960 90, 1080 84, 1120 114" stroke="#161616" stroke-width="4" stroke-linecap="round"/>
  <text x="88" y="110" font-family="Comic Sans MS, Bradley Hand, Segoe Print, sans-serif" font-size="34" fill="#161616">Snoodle Doodles HQ</text>
  <text x="86" y="180" font-family="Comic Sans MS, Bradley Hand, Segoe Print, sans-serif" font-size="88" fill="#161616">Happy Blob</text>
  <text x="86" y="255" font-family="Comic Sans MS, Bradley Hand, Segoe Print, sans-serif" font-size="66" fill="#161616">sticker pack</text>
  <text x="84" y="315" font-family="Comic Sans MS, Bradley Hand, Segoe Print, sans-serif" font-size="34" fill="#404040">Pack spread</text>

<circle cx="345" cy="407" r="69" stroke="#161616" stroke-width="4" opacity="0.9"/>
<circle cx="780" cy="300" r="67" stroke="#161616" stroke-width="4" opacity="0.9"/>
<circle cx="316" cy="792" r="35" stroke="#161616" stroke-width="4" opacity="0.9"/>
<circle cx="310" cy="766" r="72" stroke="#161616" stroke-width="4" opacity="0.9"/>
<circle cx="271" cy="243" r="30" stroke="#161616" stroke-width="4" opacity="0.9"/>
<rect x="120" y="360" width="960" height="690" rx="20" fill="#fffdf8" stroke="#161616" stroke-width="4"/>
<rect x="684" y="459" width="165" height="117" rx="52" ry="33" fill="white" stroke="#161616" stroke-width="4" transform="rotate(-2 766.5 517.5)"/>
<circle cx="748.5" cy="507.15999999999997" r="5" fill="#161616"/>
<circle cx="784.5" cy="507.15999999999997" r="5" fill="#161616"/>
<path d="M 740.5 533.16 Q 766.5 553.16 792.5 533.16" stroke="#161616" stroke-width="4" stroke-linecap="round" fill="none"/>
<path d="M 728.5 475.15999999999997 Q 766.5 437.15999999999997 802.5 475.15999999999997" stroke="#161616" stroke-width="4" stroke-linecap="round" fill="none"/>
<rect x="170" y="681" width="86" height="167" rx="47" ry="39" fill="white" stroke="#161616" stroke-width="4" transform="rotate(5 213.0 764.5)"/>
<circle cx="195.0" cy="753.16" r="5" fill="#161616"/>
<circle cx="231.0" cy="753.16" r="5" fill="#161616"/>
<path d="M 187.0 779.16 Q 213.0 799.16 239.0 779.16" stroke="#161616" stroke-width="4" stroke-linecap="round" fill="none"/>
<path d="M 175.0 721.16 Q 213.0 683.16 249.0 721.16" stroke="#161616" stroke-width="4" stroke-linecap="round" fill="none"/>
<rect x="763" y="254" width="105" height="98" rx="60" ry="52" fill="white" stroke="#161616" stroke-width="4" transform="rotate(1 815.5 303.0)"/>
<circle cx="797.5" cy="293.04" r="5" fill="#161616"/>
<circle cx="833.5" cy="293.04" r="5" fill="#161616"/>
<path d="M 789.5 319.04 Q 815.5 339.04 841.5 319.04" stroke="#161616" stroke-width="4" stroke-linecap="round" fill="none"/>
<path d="M 777.5 261.04 Q 815.5 223.04000000000002 851.5 261.04" stroke="#161616" stroke-width="4" stroke-linecap="round" fill="none"/>
<rect x="226" y="508" width="175" height="137" rx="52" ry="45" fill="white" stroke="#161616" stroke-width="4" transform="rotate(10 313.5 576.5)"/>
<circle cx="295.5" cy="565.76" r="5" fill="#161616"/>
<circle cx="331.5" cy="565.76" r="5" fill="#161616"/>
<path d="M 287.5 591.76 Q 313.5 611.76 339.5 591.76" stroke="#161616" stroke-width="4" stroke-linecap="round" fill="none"/>
<path d="M 275.5 533.76 Q 313.5 495.76 349.5 533.76" stroke="#161616" stroke-width="4" stroke-linecap="round" fill="none"/>
<text x="86" y="1125" font-family="Comic Sans MS, Bradley Hand, Segoe Print, sans-serif" font-size="30" fill="#404040">Sample product image 3 of 4</text>
<path d="M900 1090 C 970 1038, 1018 1156, 1114 1088" stroke="#161616" stroke-width="4" fill="none" stroke-linecap="round"/>
</svg>