<svg xmlns="http://www.w3.org/2000/svg" width="1200" height="1200" viewBox="0 0 1200 1200" fill="none">
  <rect width="1200" height="1200" fill="#efe9de"/>
  <rect x="42" y="42" width="1116" height="1116" rx="16" stroke="#161616" stroke-width="4"/>
  <path d="M74 110 C 210 72, 420 84, 520 112" stroke="#161616" stroke-width="4" stroke-linecap="round"/>
  <path d="M900 108 C 960 90, 1080 84, 1120 114" stroke="#161616" stroke-width="4" stroke-linecap="round"/>
  <text x="88" y="110" font-family="Comic Sans MS, Bradley Hand, Segoe Print, sans-serif" font-size="34" fill="#161616">Snoodle Doodles HQ</text>
  <text x="86" y="180" font-family="Comic Sans MS, Bradley Hand, Segoe Print, sans-serif" font-size="88" fill="#161616">Soft Chaos</text>
  <text x="86" y="255" font-family="Comic Sans MS, Bradley Hand, Segoe Print, sans-serif" font-size="66" fill="#161616">hoodie</text>
  <text x="84" y="315" font-family="Comic Sans MS, Bradley Hand, Segoe Print, sans-serif" font-size="34" fill="#404040">Styled view</text>

<circle cx="903" cy="114" r="54" stroke="#161616" stroke-width="4" opacity="0.9"/>
<circle cx="104" cy="618" r="49" stroke="#161616" stroke-width="4" opacity="0.9"/>
<circle cx="149" cy="340" r="81" stroke="#161616" stroke-width="4" opacity="0.9"/>
<circle cx="327" cy="218" r="83" stroke="#161616" stroke-width="4" opacity="0.9"/>
<rect x="130" y="340" width="940" height="720" rx="28" fill="#fffdf8" stroke="#161616" stroke-width="4"/>
<path d="M450 430 L525 380 L675 380 L750 430 L834 520 L788 560 L748 520 L748 880 Q 748 930 698 930 L502 930 Q 452 930 452 880 L452 520 L412 560 L366 520 Z" fill="#f5f2ea" stroke="#161616" stroke-width="4"/>
<path d="M534 388 Q 600 462 666 388" stroke="#161616" stroke-width="4" fill="none"/>
<path d="M548 470 Q 602 520 652 470" stroke="#161616" stroke-width="4" fill="none"/>
<path d="M 508 618 Q 528 588 550 618" stroke="#161616" stroke-width="4" fill="none"/>
<path d="M 520 642 Q 528 656 538 642" stroke="#161616" stroke-width="4" fill="none"/>
<path d="M 650 646 Q 670 616 692 646" stroke="#161616" stroke-width="4" fill="none"/>
<path d="M 662 670 Q 670 684 680 670" stroke="#161616" stroke-width="4" fill="none"/>
<path d="M 556 770 Q 576 740 598 770" stroke="#161616" stroke-width="4" fill="none"/>
<path d="M 568 794 Q 576 808 586 794" stroke="#161616" stroke-width="4" fill="none"/>
<path d="M 662 788 Q 682 758 704 788" stroke="#161616" stroke-width="4" fill="none"/>
<path d="M 674 812 Q 682 826 692 812" stroke="#161616" stroke-width="4" fill="none"/>
<text x="86" y="1125" font-family="Comic Sans MS, Bradley Hand, Segoe Print, sans-serif" font-size="30" fill="#404040">Sample product image 4 of 4</text>
<path d="M900 1090 C 970 1038, 1018 1156, 1114 1088" stroke="#161616" stroke-width="4" fill="none" stroke-linecap="round"/>
</svg>