<svg xmlns="http://www.w3.org/2000/svg" width="1200" height="1200" viewBox="0 0 1200 1200" fill="none">
  <rect width="1200" height="1200" fill="#fff3d7"/>
  <rect x="42" y="42" width="1116" height="1116" rx="16" stroke="#161616" stroke-width="4"/>
  <path d="M74 110 C 210 72, 420 84, 520 112" stroke="#161616" stroke-width="4" stroke-linecap="round"/>
  <path d="M900 108 C 960 90, 1080 84, 1120 114" stroke="#161616" stroke-width="4" stroke-linecap="round"/>
  <text x="88" y="110" font-family="Comic Sans MS, Bradley Hand, Segoe Print, sans-serif" font-size="34" fill="#161616">Snoodle Doodles HQ</text>
  <text x="86" y="180" font-family="Comic Sans MS, Bradley Hand, Segoe Print, sans-serif" font-size="88" fill="#161616">Picnic Doodle</text>
  <text x="86" y="255" font-family="Comic Sans MS, Bradley Hand, Segoe Print, sans-serif" font-size="66" fill="#161616">sticker pack</text>
  <text x="84" y="315" font-family="Comic Sans MS, Bradley Hand, Segoe Print, sans-serif" font-size="34" fill="#404040">Sheet view</text>

<circle cx="598" cy="574" r="47" stroke="#161616" stroke-width="4" opacity="0.9"/>
<circle cx="651" cy="654" r="50" stroke="#161616" stroke-width="4" opacity="0.9"/>
<circle cx="570" cy="127" r="36" stroke="#161616" stroke-width="4" opacity="0.9"/>
<circle cx="232" cy="571" r="69" stroke="#161616" stroke-width="4" opacity="0.9"/>
<circle cx="861" cy="730" r="26" stroke="#161616" stroke-width="4" opacity="0.9"/>
<rect x="120" y="360" width="960" height="690" rx="20" fill="#fffdf8" stroke="#161616" stroke-width="4"/>
<rect x="464" y="535" width="162" height="125" rx="46" ry="36" fill="white" stroke="#161616" stroke-width="4" transform="rotate(2 545.0 597.5)"/>
<circle cx="527.0" cy="587.0" r="5" fill="#161616"/>
<circle cx="563.0" cy="587.0" r="5" fill="#161616"/>
<path d="M 519.0 613.0 Q 545.0 633.0 571.0 613.0" stroke="#161616" stroke-width="4" stroke-linecap="round" fill="none"/>
<path d="M 507.0 555.0 Q 545.0 517.0 581.0 555.0" stroke="#161616" stroke-width="4" stroke-linecap="round" fill="none"/>
<rect x="366" y="552" width="157" height="96" rx="39" ry="53" fill="white" stroke="#161616" stroke-width="4" transform="rotate(-3 444.5 600.0)"/>
<circle cx="426.5" cy="590.08" r="5" fill="#161616"/>
<circle cx="462.5" cy="590.08" r="5" fill="#161616"/>
<path d="M 418.5 616.08 Q 444.5 636.08 470.5 616.08" stroke="#161616" stroke-width="4" stroke-linecap="round" fill="none"/>
<path d="M 406.5 558.08 Q 444.5 520.08 480.5 558.08" stroke="#161616" stroke-width="4" stroke-linecap="round" fill="none"/>
<rect x="757" y="317" width="97" height="145" rx="53" ry="26" fill="white" stroke="#161616" stroke-width="4" transform="rotate(7 805.5 389.5)"/>
<circle cx="787.5" cy="378.6" r="5" fill="#161616"/>
<circle cx="823.5" cy="378.6" r="5" fill="#161616"/>
<path d="M 779.5 404.6 Q 805.5 424.6 831.5 404.6" stroke="#161616" stroke-width="4" stroke-linecap="round" fill="none"/>
<path d="M 767.5 346.6 Q 805.5 308.6 841.5 346.6" stroke="#161616" stroke-width="4" stroke-linecap="round" fill="none"/>
<rect x="445" y="424" width="179" height="179" rx="52" ry="47" fill="white" stroke="#161616" stroke-width="4" transform="rotate(-1 534.5 513.5)"/>
<circle cx="516.5" cy="501.92" r="5" fill="#161616"/>
<circle cx="552.5" cy="501.92" r="5" fill="#161616"/>
<path d="M 508.5 527.9200000000001 Q 534.5 547.9200000000001 560.5 527.9200000000001" stroke="#161616" stroke-width="4" stroke-linecap="round" fill="none"/>
<path d="M 496.5 469.92 Q 534.5 431.92 570.5 469.92" stroke="#161616" stroke-width="4" stroke-linecap="round" fill="none"/>
<text x="86" y="1125" font-family="Comic Sans MS, Bradley Hand, Segoe Print, sans-serif" font-size="30" fill="#404040">Sample product image 1 of 4</text>
<path d="M900 1090 C 970 1038, 1018 1156, 1114 1088" stroke="#161616" stroke-width="4" fill="none" stroke-linecap="round"/>
</svg>