<svg xmlns="http://www.w3.org/2000/svg" width="1200" height="1200" viewBox="0 0 1200 1200" fill="none">
  <rect width="1200" height="1200" fill="#fff3d7"/>
  <rect x="42" y="42" width="1116" height="1116" rx="16" stroke="#161616" stroke-width="4"/>
  <path d="M74 110 C 210 72, 420 84, 520 112" stroke="#161616" stroke-width="4" stroke-linecap="round"/>
  <path d="M900 108 C 960 90, 1080 84, 1120 114" stroke="#161616" stroke-width="4" stroke-linecap="round"/>
  <text x="88" y="110" font-family="Comic Sans MS, Bradley Hand, Segoe Print, sans-serif" font-size="34" fill="#161616">Snoodle Doodles HQ</text>
  <text x="86" y="180" font-family="Comic Sans MS, Bradley Hand, Segoe Print, sans-serif" font-size="88" fill="#161616">Picnic Doodle</text>
  <text x="86" y="255" font-family="Comic Sans MS, Bradley Hand, Segoe Print, sans-serif" font-size="66" fill="#161616">sticker pack</text>
  <text x="84" y="315" font-family="Comic Sans MS, Bradley Hand, Segoe Print, sans-serif" font-size="34" fill="#404040">Sticker detail</text>

<circle cx="829" cy="400" r="84" stroke="#161616" stroke-width="4" opacity="0.9"/>
<circle cx="873" cy="148" r="57" stroke="#161616" stroke-width="4" opacity="0.9"/>
<circle cx="84" cy="644" r="68" stroke="#161616" stroke-width="4" opacity="0.9"/>
<circle cx="406" cy="311" r="55" stroke="#161616" stroke-width="4" opacity="0.9"/>
<circle cx="590" cy="674" r="74" stroke="#161616" stroke-width="4" opacity="0.9"/>
<rect x="120" y="360" width="960" height="690" rx="20" fill="#fffdf8" stroke="#161616" stroke-width="4"/>
<rect x="515" y="393" width="139" height="176" rx="34" ry="27" fill="white" stroke="#161616" stroke-width="4" transform="rotate(5 584.5 481.0)"/>
<circle cx="566.5" cy="469.48" r="5" fill="#161616"/>
<circle cx="602.5" cy="469.48" r="5" fill="#161616"/>
<path d="M 558.5 495.48 Q 584.5 515.48 610.5 495.48" stroke="#161616" stroke-width="4" stroke-linecap="round" fill="none"/>
<path d="M 546.5 437.48 Q 584.5 399.48 620.5 437.48" stroke="#161616" stroke-width="4" stroke-linecap="round" fill="none"/>
<rect x="407" y="718" width="121" height="172" rx="58" ry="43" fill="white" stroke="#161616" stroke-width="4" transform="rotate(7 467.5 804.0)"/>
<circle cx="449.5" cy="792.56" r="5" fill="#161616"/>
<circle cx="485.5" cy="792.56" r="5" fill="#161616"/>
<path d="M 441.5 818.56 Q 467.5 838.56 493.5 818.56" stroke="#161616" stroke-width="4" stroke-linecap="round" fill="none"/>
<path d="M 429.5 760.56 Q 467.5 722.56 503.5 760.56" stroke="#161616" stroke-width="4" stroke-linecap="round" fill="none"/>
<rect x="478" y="464" width="86" height="164" rx="31" ry="25" fill="white" stroke="#161616" stroke-width="4" transform="rotate(-3 521.0 546.0)"/>
<circle cx="503.0" cy="534.72" r="5" fill="#161616"/>
<circle cx="539.0" cy="534.72" r="5" fill="#161616"/>
<path d="M 495.0 560.72 Q 521.0 580.72 547.0 560.72" stroke="#161616" stroke-width="4" stroke-linecap="round" fill="none"/>
<path d="M 483.0 502.72 Q 521.0 464.72 557.0 502.72" stroke="#161616" stroke-width="4" stroke-linecap="round" fill="none"/>
<rect x="624" y="284" width="135" height="85" rx="37" ry="52" fill="white" stroke="#161616" stroke-width="4" transform="rotate(-6 691.5 326.5)"/>
<circle cx="673.5" cy="316.8" r="5" fill="#161616"/>
<circle cx="709.5" cy="316.8" r="5" fill="#161616"/>
<path d="M 665.5 342.8 Q 691.5 362.8 717.5 342.8" stroke="#161616" stroke-width="4" stroke-linecap="round" fill="none"/>
<path d="M 653.5 284.8 Q 691.5 246.8 727.5 284.8" stroke="#161616" stroke-width="4" stroke-linecap="round" fill="none"/>
<text x="86" y="1125" font-family="Comic Sans MS, Bradley Hand, Segoe Print, sans-serif" font-size="30" fill="#404040">Sample product image 4 of 4</text>
<path d="M900 1090 C 970 1038, 1018 1156, 1114 1088" stroke="#161616" stroke-width="4" fill="none" stroke-linecap="round"/>
</svg>