<svg xmlns="http://www.w3.org/2000/svg" width="1200" height="900" viewBox="0 0 1200 900" fill="none">
  <rect width="1200" height="900" fill="#eaf8ed"/>
  <rect x="44" y="44" width="1112" height="812" rx="20" stroke="#161616" stroke-width="5"/>
  <path d="M88 148 C220 82 380 92 530 148 C676 202 814 184 1018 98" stroke="#161616" stroke-width="5" stroke-linecap="round"/>
  <text x="92" y="160" font-family="Comic Sans MS, Bradley Hand, Segoe Print, sans-serif" font-size="62" fill="#161616">Coffee and character shapes</text>
  <g transform="translate(242 299) rotate(3)">
    <path d="M250 48 C346 30 458 88 498 188 C548 316 468 456 330 482 C194 508 72 410 74 280 C76 162 146 72 250 48Z" fill="#fffefa" stroke="#161616" stroke-width="5"/>
    <circle cx="234" cy="240" r="12" fill="#161616"/>
    <circle cx="354" cy="232" r="12" fill="#161616"/>
    <path d="M246 318 Q304 360 370 310" stroke="#161616" stroke-width="5" fill="none" stroke-linecap="round"/>
    <path d="M180 166 Q246 104 324 158" stroke="#161616" stroke-width="5" fill="none" stroke-linecap="round"/>
  </g>
  <path d="M760 454 C860 380 1016 420 1068 548 C1118 676 1008 768 866 742 C744 720 682 574 760 454Z" fill="#fffefa" stroke="#161616" stroke-width="5"/>
  <path d="M804 538 H1008" stroke="#161616" stroke-width="5" stroke-linecap="round"/>
  <path d="M806 594 H960" stroke="#161616" stroke-width="5" stroke-linecap="round"/>
  <path d="M142 736 C262 680 386 694 496 760" stroke="#161616" stroke-width="5" stroke-linecap="round"/>
  <circle cx="1030" cy="204" r="26" stroke="#161616" stroke-width="5"/>
  <circle cx="1090" cy="238" r="14" fill="#161616"/>
</svg>